<svg id="visual" viewBox="0 0 900 600" width="900" height="600" xmlns="http://www.w3.org/2000/svg" xmlns:xlink="http://www.w3.org/1999/xlink" version="1.1"><rect x="0" y="0" width="900" height="600" fill="#ffddd2"></rect><defs><linearGradient id="grad1_0" x1="33.3%" y1="100%" x2="100%" y2="0%"><stop offset="20%" stop-color="#ffddd2" stop-opacity="1"></stop><stop offset="80%" stop-color="#ffddd2" stop-opacity="1"></stop></linearGradient></defs><defs><linearGradient id="grad2_0" x1="0%" y1="100%" x2="66.7%" y2="0%"><stop offset="20%" stop-color="#ffddd2" stop-opacity="1"></stop><stop offset="80%" stop-color="#ffddd2" stop-opacity="1"></stop></linearGradient></defs><g transform="translate(900, 600)"><path d="M-216.3 0C-212.7 -27.3 -209.1 -54.6 -199.9 -82.8C-190.6 -111 -175.8 -140.2 -152 -152C-128.7 -163.9 -95.7 -158.5 -68.9 -166.3C-42.1 -174.1 -21 -195.2 0 -216.3L0 0Z" fill="#7c73e6"></path></g><g transform="translate(0, 0)"><path d="M216.3 0C214.8 29.6 213.3 59.3 199.9 82.8C186.4 110.3 161.1 123.7 138.6 175.6C116.1 153.5 96.5 165.8 73.9 178.3C51.2 190.8 25.6 203.6 0 216.3L0 0Z" fill="#7c73e6"></path></g></svg>