<svg id="visual" viewBox="0 0 900 600" width="900" height="600" xmlns="http://www.w3.org/2000/svg" xmlns:xlink="http://www.w3.org/1999/xlink" version="1.1"><rect x="0" y="0" width="900" height="600" fill="#c4c1e0"></rect><defs><linearGradient id="grad1_0" x1="33.3%" y1="0%" x2="100%" y2="100%"><stop offset="20%" stop-color="#7c73e6" stop-opacity="1"></stop><stop offset="80%" stop-color="#7c73e6" stop-opacity="1"></stop></linearGradient></defs><defs><linearGradient id="grad1_1" x1="33.3%" y1="0%" x2="100%" y2="100%"><stop offset="20%" stop-color="#7c73e6" stop-opacity="1"></stop><stop offset="80%" stop-color="#a19ae4" stop-opacity="1"></stop></linearGradient></defs><defs><linearGradient id="grad1_2" x1="33.3%" y1="0%" x2="100%" y2="100%"><stop offset="20%" stop-color="#c4c1e0" stop-opacity="1"></stop><stop offset="80%" stop-color="#a19ae4" stop-opacity="1"></stop></linearGradient></defs><defs><linearGradient id="grad2_0" x1="0%" y1="0%" x2="66.7%" y2="100%"><stop offset="20%" stop-color="#7c73e6" stop-opacity="1"></stop><stop offset="80%" stop-color="#7c73e6" stop-opacity="1"></stop></linearGradient></defs><defs><linearGradient id="grad2_1" x1="0%" y1="0%" x2="66.7%" y2="100%"><stop offset="20%" stop-color="#a19ae4" stop-opacity="1"></stop><stop offset="80%" stop-color="#7c73e6" stop-opacity="1"></stop></linearGradient></defs><defs><linearGradient id="grad2_2" x1="0%" y1="0%" x2="66.7%" y2="100%"><stop offset="20%" stop-color="#a19ae4" stop-opacity="1"></stop><stop offset="80%" stop-color="#c4c1e0" stop-opacity="1"></stop></linearGradient></defs><g transform="translate(900, 0)"><path d="M0 432.7C-44.4 401.9 -88.7 371.2 -147.7 356.6C-206.7 342.1 -280.3 343.7 -305.9 305.9C-331.6 268.2 -309.3 191.1 -322.4 133.6C-335.6 76 -384.1 38 -432.7 0L0 0Z" fill="#b3ade3"></path><path d="M0 288.4C-29.6 267.9 -59.2 247.5 -98.5 237.7C-137.8 228 -186.9 229.1 -204 204C-221.1 178.8 -206.2 127.4 -215 89C-223.7 50.7 -256.1 25.3 -288.4 0L0 0Z" fill="#8f86e6"></path><path d="M0 144.2C-14.8 134 -29.6 123.7 -49.2 118.9C-68.9 114 -93.4 114.6 -102 102C-110.5 89.4 -103.1 63.7 -107.5 44.5C-111.9 25.3 -128 12.7 -144.2 0L0 0Z" fill="#7c73e6"></path></g><g transform="translate(0, 600)"><path d="M0 -432.7C54.9 -425.6 109.9 -418.6 165.6 -399.7C221.3 -380.8 277.8 -350 303.3 -303.3C328.9 -256.7 323.6 -194 340 -140.8C356.4 -87.6 394.5 -43.8 432.7 0L0 0Z" fill="#b3ade3"></path><path d="M0 -288.4C36.6 -283.8 73.2 -279.1 110.4 -266.5C147.5 -253.9 185.2 -233.4 202.2 -202.2C219.3 -171.1 215.7 -129.4 226.7 -93.9C237.6 -58.4 263 -29.2 288.4 0L0 0Z" fill="#8f86e6"></path><path d="M0 -144.2C18.3 -141.9 36.6 -139.5 55.2 -133.2C73.8 -126.9 92.6 -116.7 101.1 -101.1C109.6 -85.6 107.9 -64.7 113.3 -46.9C118.8 -29.2 131.5 -14.6 144.2 0L0 0Z" fill="#7c73e6"></path></g></svg>