<?xml version="1.0" encoding="UTF-8"?>
<svg version="1.1" xmlns="http://www.w3.org/2000/svg" width="500" height="500">
<path d="M0 0 C165 0 330 0 500 0 C500 165 500 330 500 500 C335 500 170 500 0 500 C0 335 0 170 0 0 Z " fill="#F3E6D8" transform="translate(0,0)"/>
<path d="M0 0 C165 0 330 0 500 0 C500 165 500 330 500 500 C335 500 170 500 0 500 C0 335 0 170 0 0 Z M262 40 C259.3984375 40.4140625 259.3984375 40.4140625 256.375 40.625 C254.87066406 40.73714844 254.87066406 40.73714844 253.3359375 40.8515625 C252.17964844 40.92503906 252.17964844 40.92503906 251 41 C251 40.34 251 39.68 251 39 C255.455 38.505 255.455 38.505 260 38 C255.77746115 35.88873057 253.85998477 35.7828003 249.25 35.875 C248.07953125 35.89304688 246.9090625 35.91109375 245.703125 35.9296875 C244.81109375 35.95289063 243.9190625 35.97609375 243 36 C243.99 37.98 243.99 37.98 245 40 C244.37351563 39.83242188 243.74703125 39.66484375 243.1015625 39.4921875 C241.87566406 39.18667969 241.87566406 39.18667969 240.625 38.875 C239.81289062 38.66617188 239.00078125 38.45734375 238.1640625 38.2421875 C237.44992188 38.16226563 236.73578125 38.08234375 236 38 C235.34 38.66 234.68 39.32 234 40 C231.58569336 40.41064453 231.58569336 40.41064453 228.58984375 40.6328125 C227.51798828 40.71660156 226.44613281 40.80039062 225.34179688 40.88671875 C224.21837891 40.96535156 223.09496094 41.04398438 221.9375 41.125 C220.24657227 41.25455078 220.24657227 41.25455078 218.52148438 41.38671875 C210.43687996 42 210.43687996 42 209 42 C209.66 40.68 210.32 39.36 211 38 C209.81575674 36.58422523 209.81575674 36.58422523 206.4375 36.9375 C204.7359375 36.9684375 204.7359375 36.9684375 203 37 C202.6596875 37.8971875 202.6596875 37.8971875 202.3125 38.8125 C200.66188867 41.56351888 198.8027919 42.52484637 196 44 C196.65585189 47.60992379 196.65585189 47.60992379 198 51 C200.02463255 51.65213292 200.02463255 51.65213292 202 52 C197.47618873 54.04301154 192.83628305 55.00956295 188 56 C188 55.34 188 54.68 188 54 C188.99 53.67 189.98 53.34 191 53 C190.01 51.515 190.01 51.515 189 50 C186.36 50.33 183.72 50.66 181 51 C181.66 49.68 182.32 48.36 183 47 C146.21017462 55.32813126 146.21017462 55.32813126 117 77 C117.598125 77.2475 118.19625 77.495 118.8125 77.75 C121.34094503 79.19482573 122.55070617 80.48280545 124 83 C123.67 83.99 123.34 84.98 123 86 C122.071875 86.144375 121.14375 86.28875 120.1875 86.4375 C116.99274889 86.92100111 116.99274889 86.92100111 114 88 C114 87.34 114 86.68 114 86 C115.32 85.34 116.64 84.68 118 84 C117.67 83.34 117.34 82.68 117 82 C116.04480469 82.70125 115.08960937 83.4025 114.10546875 84.125 C113.48470459 84.58036133 112.86394043 85.03572266 112.22436523 85.50488281 C110.85722791 86.50840061 109.49086368 87.51297241 108.12524414 88.51855469 C105.02497088 90.79832804 101.91774752 93.05761647 98.765625 95.265625 C93.34935117 99.06599393 88.99845714 102.70474596 85 108 C85 108.33 85 108.66 85 109 C86.65 109 88.3 109 90 109 C87.20307439 114.27112904 84.01764453 118.59398317 80 123 C83.90838866 123 85.11594107 121.49432124 88 119 C83.48128268 124.49128893 78.61702906 129.27473888 73.234375 133.921875 C71.15141736 135.85917126 69.47393457 137.56921611 68 140 C68.06977074 143.65755394 68.06977074 143.65755394 69 147 C69.66 147.33 70.32 147.66 71 148 C71.17015625 147.16855469 71.3403125 146.33710938 71.515625 145.48046875 C71.75796875 144.39378906 72.0003125 143.30710937 72.25 142.1875 C72.48203125 141.10855469 72.7140625 140.02960938 72.953125 138.91796875 C74.13579963 135.62148388 75.18710359 134.91585082 78 133 C77.82871582 133.61294922 77.65743164 134.22589844 77.48095703 134.85742188 C74.06192218 147.20380838 71.07656525 159.21114723 70 172 C68.35 169.36 66.7 166.72 65 164 C64.60296875 164.53496094 64.2059375 165.06992188 63.796875 165.62109375 C62.45315257 167.40006541 61.08434618 169.16013962 59.703125 170.91015625 C58.89359375 171.95042969 58.0840625 172.99070313 57.25 174.0625 C56.82589844 174.59166016 56.40179688 175.12082031 55.96484375 175.66601562 C54.6065782 177.38079475 54.6065782 177.38079475 53 180 C53.33 180.99 53.66 181.98 54 183 C54.639375 182.01 55.27875 181.02 55.9375 180 C56.618125 179.01 57.29875 178.02 58 177 C58.33 177 58.66 177 59 177 C59.05455124 179.66694948 59.09393392 182.33275498 59.125 185 C59.14175781 185.74378906 59.15851562 186.48757812 59.17578125 187.25390625 C59.21525867 191.79380929 58.66839917 195.60870856 57.44970703 199.96875 C56.64074529 203.62269227 56.79110701 207.27644199 56.875 211 C56.88853516 212.16208984 56.88853516 212.16208984 56.90234375 213.34765625 C56.92560612 215.23190843 56.9614636 217.11599832 57 219 C59.18490007 216.32357511 59.18490007 216.32357511 59 214 C59.99 214 60.98 214 62 214 C62.22577402 219.4185766 61.46670113 223.77487721 60 229 C60 226.69 60 224.38 60 222 C58.02 222 56.04 222 54 222 C53.96036133 221.37432129 53.92072266 220.74864258 53.87988281 220.10400391 C53.68962833 217.27593928 53.47019875 214.45088399 53.25 211.625 C53.188125 210.64015625 53.12625 209.6553125 53.0625 208.640625 C52.94648437 207.22910156 52.94648437 207.22910156 52.828125 205.7890625 C52.7652832 204.91975098 52.70244141 204.05043945 52.63769531 203.15478516 C52.20155507 200.81225612 52.20155507 200.81225612 49.94824219 199.70068359 C49.30532227 199.46945801 48.66240234 199.23823242 48 199 C46.3089558 200.6910442 46.66684661 202.67275438 46.5625 205 C46.57817051 211.56594334 48.46300893 216.78893608 50.78198242 222.82202148 C52.85284415 228.28212953 53.81350045 233.12526429 54 239 C51.525 236.525 51.525 236.525 49 234 C49.34444881 236.47266765 49.34444881 236.47266765 50 239 C50.66 239.33 51.32 239.66 52 240 C52.31241371 242.54941373 52.51303421 245.00361513 52.625 247.5625 C52.66367187 248.27341797 52.70234375 248.98433594 52.7421875 249.71679688 C52.83671783 251.47742425 52.91945817 253.23867728 53 255 C51.824375 254.2575 51.824375 254.2575 50.625 253.5 C48.21447673 251.83462035 48.21447673 251.83462035 46 252 C46.11351517 253.81325551 46.24112961 255.62563357 46.375 257.4375 C46.44460937 258.44683594 46.51421875 259.45617187 46.5859375 260.49609375 C46.72257812 261.32238281 46.85921875 262.14867187 47 263 C47.66 263.33 48.32 263.66 49 264 C49.73022461 266.17041016 49.73022461 266.17041016 50.40234375 269.0390625 C50.65129395 270.08787598 50.90024414 271.13668945 51.15673828 272.21728516 C51.54321533 273.904104 51.54321533 273.904104 51.9375 275.625 C52.20546387 276.76114746 52.47342773 277.89729492 52.74951172 279.06787109 C54.18882993 285.23299464 55.48875919 291.39764705 56.625 297.625 C57.63124171 302.90628045 58.9579197 306.58407698 62 311 C62.66 312.32 63.32 313.64 64 315 C64.33 312.03 64.66 309.06 65 306 C66.97812967 312.46189024 67.34492474 318.6776302 67.71484375 325.41015625 C68.04010043 329.50482602 68.80132488 333.08432793 70 337 C70.66 337 71.32 337 72 337 C72 336.34 72 335.68 72 335 C72.66 335 73.32 335 74 335 C74.99 337.97 75.98 340.94 77 344 C76.01 344.33 75.02 344.66 74 345 C74.56579947 346.63118783 75.15334233 348.25484494 75.75 349.875 C76.23726562 351.23238281 76.23726562 351.23238281 76.734375 352.6171875 C78.17021695 355.32047018 79.17427942 355.96706853 82 357 C82 356.01 82 355.02 82 354 C88.10341799 364.44106725 88.10341799 364.44106725 89.125 369.3125 C90.72427178 376.05228821 94.71732418 379.95032179 100.0625 384.0625 C103.90230615 387.02303264 106.60135272 389.73961195 109 394 C110.60081787 395.66742237 110.60081787 395.66742237 112.4375 397.125 C115.42710051 399.63539314 118.3055735 402.21872154 121.13574219 404.90795898 C131.29519283 414.48948678 142.48540333 421.98681588 154.66674805 428.77758789 C156.47480113 429.79989534 158.24225454 430.89342901 160 432 C160 432.66 160 433.32 160 434 C163.86869477 436.17783438 167.74259686 438.34604007 171.62109375 440.50634766 C172.93335173 441.23889713 174.24427998 441.97383492 175.55371094 442.71142578 C191.54051588 451.71167772 207.18720884 459.8864666 226 459 C226 456.36 226 453.72 226 451 C227.04526855 451.02618408 228.09053711 451.05236816 229.16748047 451.0793457 C252.25207866 451.60626353 274.93564795 451.96251491 297 444 C296.95875 445.2375 296.9175 446.475 296.875 447.75 C296.86341709 451.01637962 297.1431298 453.2146947 299 456 C300.98 456 302.96 456 305 456 C303.68 455.34 302.36 454.68 301 454 C300.875 446.375 300.875 446.375 302 443 C304.0625 442 304.0625 442 307 441 C308.43879549 440.46178391 309.87624591 439.91996166 311.3125 439.375 C313.1378125 438.694375 313.1378125 438.694375 315 438 C315.33 439.32 315.66 440.64 316 442 C312.95613276 442.08226668 310.92824652 441.97608217 308 441 C308.33 441.99 308.66 442.98 309 444 C317.95422665 444.58116375 326.28942577 442.80573666 335 441 C336.66649844 440.66582666 338.33308578 440.33209316 340 440 C340 441.32 340 442.64 340 444 C343.3 443.67 346.6 443.34 350 443 C350 444.65 350 446.3 350 448 C351.99863756 447.42055068 351.99863756 447.42055068 354 446 C355.29231642 442.95800528 355.29231642 442.95800528 356 440 C352.04 439.34 348.08 438.68 344 438 C344.33 437.67 344.66 437.34 345 437 C345.36760731 434.67182036 345.70241581 432.3381615 346 430 C346.66 430.33 347.32 430.66 348 431 C351.71334014 431.41857296 355.29124126 431.48116549 359 431 C361.79135579 428.87551522 361.79135579 428.87551522 364 426 C366.57908588 424.19030528 369.29341917 422.61118662 372 421 C376.27274806 418.37061658 379.07757376 416.07368506 382 412 C382.59425781 411.195625 383.18851562 410.39125 383.80078125 409.5625 C387.69651895 404.75367046 387.69651895 404.75367046 389 399 C388.113125 399.474375 387.22625 399.94875 386.3125 400.4375 C380.84308334 402.8331949 374.88433663 402.74338983 369 403 C370.81094081 400.80780849 371.64765717 400.05808451 374.51171875 399.5859375 C377.12825056 399.2397335 377.12825056 399.2397335 378.51953125 397.1015625 C378.94621094 396.28429687 379.37289063 395.46703125 379.8125 394.625 C382.59363265 389.60890028 385.7677802 385.07851244 389.18359375 380.4765625 C390.59206837 378.55619065 391.9146554 376.63475463 393.1875 374.625 C395.19542988 371.71696363 397.50104102 369.49895898 400 367 C403.23385763 363.33189609 406.36339714 359.58139221 409.48535156 355.81787109 C410.47869488 354.62566698 411.47786885 353.43829175 412.48339844 352.25634766 C423.96031485 338.76547136 432.80788888 323.66561599 441 308 C441.99 308 442.98 308 444 308 C444.33 304.37 444.66 300.74 445 297 C447.33333333 297 449.66666667 297 452 297 C452.11232524 291.15908748 451.75502318 285.45379311 451.21875 279.63671875 C451 277 451 277 451 274 C451.99 274.66 452.98 275.32 454 276 C454.99 276 455.98 276 457 276 C456.44271087 272.65626525 455.64826111 269.96687001 454 267 C454.639375 266.401875 455.27875 265.80375 455.9375 265.1875 C458.20310389 263.09189663 458.20310389 263.09189663 459 260 C459.66 259.67 460.32 259.34 461 259 C459.38511914 250.32270684 457.76700365 241.64792375 456 233 C456.99 233 457.98 233 459 233 C458.67 234.98 458.34 236.96 458 239 C459.65 239.33 461.3 239.66 463 240 C462.5999903 236.1332396 462.23032984 232.69098952 461 229 C459.76967016 225.30901048 459.4000097 221.8667604 459 218 C457.68 218.33 456.36 218.66 455 219 C455 212.73 455 206.46 455 200 C454.34 199.67 453.68 199.34 453 199 C453 197.68 453 196.36 453 195 C453.66 195.66 454.32 196.32 455 197 C455 194.36 455 191.72 455 189 C454.37907471 188.76692139 453.75814941 188.53384277 453.1184082 188.29370117 C450.36572046 186.6126487 450.06322607 185.3468902 449.10546875 182.30078125 C448.79343506 181.34598877 448.48140137 180.39119629 448.15991211 179.4074707 C447.83901611 178.38613037 447.51812012 177.36479004 447.1875 176.3125 C442.85957435 163.23971687 437.6943499 151.37246186 430.48046875 139.5859375 C429 137 429 137 428.02734375 134.42578125 C426.8553693 131.65849557 425.43078651 129.99523747 423.375 127.8125 C420.50686988 124.69205682 417.79366354 121.52983758 415.1875 118.1875 C400.37429637 99.50365573 382.13841567 84.08845576 361 73 C362.08050154 70.73047494 363.02561939 68.97058514 364.6875 67.0625 C366.29365667 65.01567781 366.29365667 65.01567781 365.6875 62.25 C365.460625 61.5075 365.23375 60.765 365 60 C364.01 60 363.02 60 362 60 C362.0825 60.763125 362.165 61.52625 362.25 62.3125 C362 65 362 65 360.5 66.8125 C356.87730459 68.53328032 353.98961898 68.19948095 350 68 C350.309375 66.8553125 350.309375 66.8553125 350.625 65.6875 C351.33391203 62.78114056 351.33391203 62.78114056 349 60 C348.34 60 347.68 60 347 60 C347.33 61.98 347.66 63.96 348 66 C346.35 65.67 344.7 65.34 343 65 C343.268125 64.13375 343.53625 63.2675 343.8125 62.375 C344.31599658 58.93110256 344.31599658 58.93110256 342.3125 56.125 C338.67190019 52.21472613 334.0164526 49.49833856 329.546875 46.63671875 C327 45 327 45 326 44 C321.08477738 43.6290398 318.75709077 43.84835652 315 47 C314.64550781 46.36191406 314.29101562 45.72382812 313.92578125 45.06640625 C311.36984663 41.09944718 309.62265746 38.39090368 304.88671875 37.25 C302.68767788 37.12825379 300.48352707 37.07360225 298.28125 37.09765625 C294.57342784 36.9873044 291.55859419 36.0167412 288 35 C279.46231879 34.29614405 268.54529496 33.45470504 262 40 Z " fill="#000000" transform="translate(0,0)"/>
<path d="M0 0 C2.4294516 3.6441774 2.16179575 5.71241272 2 10 C2.99 10.33 3.98 10.66 5 11 C5.33 16.94 5.66 22.88 6 29 C6.66 29 7.32 29 8 29 C7.93941406 28.3702124 7.87882813 27.7404248 7.81640625 27.09155273 C7.54087158 24.20718167 7.27039824 21.32235693 7 18.4375 C6.85691406 16.9515332 6.85691406 16.9515332 6.7109375 15.43554688 C6.22991879 10.26459572 5.88346366 5.19315048 6 0 C8.18488748 3.27733122 8.33612109 4.66629847 8.59765625 8.5078125 C8.71657227 10.11076172 8.71657227 10.11076172 8.83789062 11.74609375 C8.94907227 13.41865234 8.94907227 13.41865234 9.0625 15.125 C9.21609194 17.33621614 9.37343496 19.54717605 9.53515625 21.7578125 C9.63389038 23.22951904 9.63389038 23.22951904 9.73461914 24.73095703 C9.75814843 26.96487452 9.75814843 26.96487452 11 28 C10.96519531 26.74703125 10.93039062 25.4940625 10.89453125 24.203125 C10.86638872 22.55209676 10.83908906 20.90105399 10.8125 19.25 C10.78736328 18.425 10.76222656 17.6 10.73632812 16.75 C10.66165501 10.57702246 10.66165501 10.57702246 12.51171875 7.421875 C13.00285156 6.95265625 13.49398437 6.4834375 14 6 C14.3456689 7.7684668 14.6756787 9.53999401 15 11.3125 C15.185625 12.29863281 15.37125 13.28476563 15.5625 14.30078125 C15.7790625 16.13189453 15.7790625 16.13189453 16 18 C16.15819214 19.17175781 16.15819214 19.17175781 16.31958008 20.3671875 C16.99876297 29.3765195 13.01580758 35.85361378 8.6875 43.375 C7.98812535 44.63033775 7.29084391 45.88684406 6.59570312 47.14453125 C4.24139423 51.38300895 1.88474669 55.61303204 -0.72338867 59.70166016 C-2.24278598 61.99891705 -2.24278598 61.99891705 -2 65 C-0.27087667 66.60502616 -0.27087667 66.60502616 2 68.125 C11.6975073 75.41337813 17.17490279 83.52470837 21 95 C21.59338282 106.63306315 20.7031161 116.62321114 15 127 C13.68557638 128.35197858 12.3565164 129.69026002 11 131 C10.20318682 133.64184541 10.20318682 133.64184541 10 136 C8.35 136 6.7 136 5 136 C5.33 137.65 5.66 139.3 6 141 C1.25 140.125 1.25 140.125 -1 139 C-0.484375 139.78375 0.03125 140.5675 0.5625 141.375 C1.036875 142.24125 1.51125 143.1075 2 144 C1.67 144.66 1.34 145.32 1 146 C-2.37503669 144.8141763 -4.64722731 143.72426311 -7 141 C-7.33 141.99 -7.66 142.98 -8 144 C-8 143.34 -8 142.68 -8 142 C-8.66 142 -9.32 142 -10 142 C-9.67 143.051875 -9.34 144.10375 -9 145.1875 C-8.16033218 148.38873357 -7.80249096 150.7411008 -8 154 C-11.48331435 150.98112756 -12.79157144 148.43090471 -14 144 C-14.99 144 -15.98 144 -17 144 C-16.67 144.70125 -16.34 145.4025 -16 146.125 C-14.90955438 149.26003116 -14.84677357 151.70563182 -15 155 C-15.33 154.34 -15.66 153.68 -16 153 C-16.99 153 -17.98 153 -19 153 C-19.66 150.36 -20.32 147.72 -21 145 C-21.66 145 -22.32 145 -23 145 C-22.505 148.465 -22.505 148.465 -22 152 C-24 149 -24 149 -24 145 C-24.66 145 -25.32 145 -26 145 C-25.67 148.3 -25.34 151.6 -25 155 C-25.66 155 -26.32 155 -27 155 C-27 156.65 -27 158.3 -27 160 C-29.92987626 154.72622272 -30.11710798 149.97250691 -30 144 C-28.85724609 143.61521484 -28.85724609 143.61521484 -27.69140625 143.22265625 C-15.85566117 138.83412156 -8.45389309 131.35149274 -3 120 C0.73793555 110.6461323 -0.23697594 100.16634067 -4 91 C-6.46334318 86.48387084 -8.58642917 84.49811022 -13 82 C-17.27223344 89.45945521 -21.52671785 96.90350373 -25.3125 104.625 C-28.92833343 111.99279235 -32.86788355 119.17283915 -36.82543945 126.36181641 C-37.32132568 127.26335449 -37.81721191 128.16489258 -38.328125 129.09375 C-39.03098633 130.36992187 -39.03098633 130.36992187 -39.74804688 131.671875 C-40.79509164 133.61895357 -41.77349538 135.60273818 -42.734375 137.59375 C-44 140 -44 140 -46 141 C-46.68729254 143.11846285 -46.68729254 143.11846285 -47.125 145.5625 C-47.29257813 146.38878906 -47.46015625 147.21507812 -47.6328125 148.06640625 C-47.81457031 149.02353516 -47.81457031 149.02353516 -48 150 C-47.34 150 -46.68 150 -46 150 C-45.505 146.04 -45.505 146.04 -45 142 C-44.67 142 -44.34 142 -44 142 C-44.51553879 148.49850211 -45.46667709 154.66226532 -47 161 C-47.33 161 -47.66 161 -48 161 C-48 158.03 -48 155.06 -48 152 C-48.66 152.66 -49.32 153.32 -50 154 C-50.99 154 -51.98 154 -53 154 C-53.103125 154.8971875 -53.20625 155.794375 -53.3125 156.71875 C-54.02983481 160.14239339 -54.90857625 161.75016507 -57 164.5 C-60.04354237 168.63946811 -62.87414534 172.85201991 -65.625 177.1875 C-66.39911911 178.39232597 -67.17383854 179.59676649 -67.94921875 180.80078125 C-69.09048637 182.58115874 -70.22495601 184.36613075 -71.33203125 186.16796875 C-76.2677008 193.78947968 -84.118991 199.66166479 -92.76171875 202.36328125 C-104.25816439 204.62374041 -114.45808035 204.17215987 -124.73828125 198.25 C-134.80783302 191.30381818 -143.41482246 183.50331061 -146 171 C-147.11165826 161.96094265 -144.40497593 152.92667695 -139.125 145.5625 C-133.9458686 139.30329848 -128.97702659 135.56343697 -120.6875 134.625 C-114.57837623 135.24626682 -109.8441366 137.47658281 -105.125 141.375 C-101.1881212 146.23820322 -99.36031179 150.31212278 -99.58203125 156.5625 C-100.76666149 163.47099783 -104.62226734 169.58750141 -110 174 C-115.60891724 177.5320011 -123.32567039 176.63331684 -129.62890625 175.546875 C-131.43622299 175.09423753 -133.22229566 174.55771117 -135 174 C-132.50088314 182.23238494 -128.23748259 188.12979193 -121.0625 193 C-113.06395002 197.03345683 -102.32576499 196.08585737 -94 193.5 C-79.52624363 187.24751033 -72.91949064 170.21190244 -66 157 C-64.68 157 -63.36 157 -62 157 C-61.98582031 156.39414062 -61.97164063 155.78828125 -61.95703125 155.1640625 C-61.55749974 148.14526578 -59.49264649 143.05735738 -56 137 C-56.66 137 -57.32 137 -58 137 C-58.2578125 137.69609375 -58.515625 138.3921875 -58.78125 139.109375 C-60.13392624 142.31764557 -61.75049365 145.24025603 -63.5 148.25 C-64.1084375 149.30703125 -64.716875 150.3640625 -65.34375 151.453125 C-67 154 -67 154 -69 155 C-67.57250019 151.20950293 -65.83763458 147.72877544 -63.875 144.1875 C-63.06675781 142.72376953 -63.06675781 142.72376953 -62.2421875 141.23046875 C-61.83226562 140.49441406 -61.42234375 139.75835937 -61 139 C-62.73123194 140.67368407 -64.10729322 142.1632723 -65.4375 144.1875 C-65.953125 144.785625 -66.46875 145.38375 -67 146 C-68.32 146 -69.64 146 -71 146 C-71.66 147.32 -72.32 148.64 -73 150 C-73 146.21986906 -71.81500116 144.82404588 -69.75 141.6875 C-69.11449219 140.71554687 -68.47898437 139.74359375 -67.82421875 138.7421875 C-67.22222656 137.83726562 -66.62023437 136.93234375 -66 136 C-65.55269531 135.32195312 -65.10539062 134.64390625 -64.64453125 133.9453125 C-63.76996971 132.62557704 -62.88637286 131.31183183 -62 130 C-60.02 130.99 -60.02 130.99 -58 132 C-58 132.66 -58 133.32 -58 134 C-57.34 134 -56.68 134 -56 134 C-56 134.66 -56 135.32 -56 136 C-51.68661923 132.3386419 -49.47818593 127.72983518 -46.875 122.8125 C-43.26420115 116.11213022 -39.58102485 109.47793539 -35.6875 102.9375 C-32.42515896 97.44982402 -29.25945712 91.93116141 -26.25390625 86.296875 C-25.34246822 84.62732497 -24.36089782 82.99548175 -23.33984375 81.390625 C-21.75554642 79.02057993 -21.75554642 79.02057993 -22 76 C-28.66223554 73.96944458 -37.31975772 73.5390247 -43.84375 76.12890625 C-49.2387513 79.57271541 -53.14788967 83.4388684 -54.67578125 89.82421875 C-55.1877764 92.54441069 -55.62910918 95.25735999 -56 98 C-58.70203361 95.29796639 -58.70157765 93.28176943 -59.0234375 89.5625 C-58.94041443 80.4853111 -54.31743493 72.85846688 -48.44140625 66.24609375 C-42.21909861 60.29237493 -34.37956928 57.79834154 -25.875 57.625 C-20.70596491 57.80045028 -15.99006128 58.66931699 -11 60 C-10.76152344 59.17371094 -10.52304688 58.34742188 -10.27734375 57.49609375 C-8.77662074 53.38861029 -6.7662449 49.82559913 -4.5625 46.0625 C-1.69125367 41.1396943 0.8567459 36.28577459 3 31 C2.01 30.01 2.01 30.01 1 29 C0.68115234 26.97216797 0.68115234 26.97216797 0.5859375 24.4921875 C0.54726563 23.58726562 0.50859375 22.68234375 0.46875 21.75 C0.42234375 20.326875 0.42234375 20.326875 0.375 18.875 C0.33632813 17.94945312 0.29765625 17.02390625 0.2578125 16.0703125 C0.04582671 10.71010042 -0.03786381 5.36403976 0 0 Z " fill="#080707" transform="translate(262,176)"/>
<path d="M0 0 C4.89368846 6.58116724 4.71912396 14.08963647 4 22 C0.48541975 37.53641549 -7.84639028 51.68790204 -19 63 C-20.485 63.495 -20.485 63.495 -22 64 C-23.65 62.35 -25.3 60.7 -27 59 C-26.505 58.01 -26.505 58.01 -26 57 C-24.02 58.65 -22.04 60.3 -20 62 C-20 61.01 -20 60.02 -20 59 C-20.66 59 -21.32 59 -22 59 C-25 54.61538462 -25 54.61538462 -25 52 C-26.32 52 -27.64 52 -29 52 C-29.33 52.99 -29.66 53.98 -30 55 C-30.99 55.33 -31.98 55.66 -33 56 C-32.11797637 58.22237273 -32.11797637 58.22237273 -29.625 59.375 C-26.9319947 61.04209852 -25.51129023 62.22930124 -24 65 C-24.3125 67.25 -24.3125 67.25 -25 69 C-29.33706387 67.24495933 -30.52220854 64.76425229 -32.65625 60.77734375 C-33.87839757 58.8180892 -33.87839757 58.8180892 -36.15625 58.25390625 C-36.7646875 58.17011719 -37.373125 58.08632812 -38 58 C-38.33 58.99 -38.66 59.98 -39 61 C-39.99 61 -40.98 61 -42 61 C-41.690625 61.9075 -41.38125 62.815 -41.0625 63.75 C-40.2727737 66.16563338 -39.57050703 68.52780285 -39 71 C-41.39520049 69.04029051 -42.0243293 67.91890234 -42.9375 64.875 C-43.288125 63.92625 -43.63875 62.9775 -44 62 C-46.0190304 61.27749876 -46.0190304 61.27749876 -48 61 C-47.02160156 60.50371094 -46.04320312 60.00742188 -45.03515625 59.49609375 C-33.68464263 53.65491918 -24.56391274 48.35170792 -18 37 C-16.515 37.495 -16.515 37.495 -15 38 C-15.66 38 -16.32 38 -17 38 C-17.33 39.32 -17.66 40.64 -18 42 C-17.21625 41.814375 -16.4325 41.62875 -15.625 41.4375 C-13 41 -13 41 -11 42 C-11.99 40.68 -12.98 39.36 -14 38 C-13.01 38 -12.02 38 -11 38 C-11 37.01 -11 36.02 -11 35 C-11.99 35 -12.98 35 -14 35 C-14 33.68 -14 32.36 -14 31 C-13.34 31 -12.68 31 -12 31 C-12.66 30.01 -13.32 29.02 -14 28 C-14.28875 27.01 -14.5775 26.02 -14.875 25 C-16.15785677 21.57904862 -16.88968164 20.7990543 -20 19 C-28.07849253 17.79958143 -35.0216007 18.83880634 -42 23 C-43.10601562 23.65355469 -43.10601562 23.65355469 -44.234375 24.3203125 C-60.82441592 34.78920039 -69.93109469 50.13271234 -79 67 C-79.66 67 -80.32 67 -81 67 C-81 68.98 -81 70.96 -81 73 C-81.33 73 -81.66 73 -82 73 C-82 71.35 -82 69.7 -82 68 C-83.65 68 -85.3 68 -87 68 C-86.67 70.64 -86.34 73.28 -86 76 C-85.01 76.33 -84.02 76.66 -83 77 C-82.22959149 83.06696699 -81.90293888 88.88514973 -82 95 C-83.32 95 -84.64 95 -86 95 C-87.39049107 85.91214765 -88.30892527 77.21627045 -88 68 C-88.66 68 -89.32 68 -90 68 C-85.52025729 46.31397277 -63.87493267 21.2108259 -46.25 8.625 C-34.61054422 1.28342474 -12.85847236 -8.87846901 0 0 Z " fill="#060606" transform="translate(374,108)"/>
<path d="M0 0 C4.33919542 3.58455274 7.36523996 7.37279977 8.35546875 13.03125 C8.8670532 20.88476263 5.43687575 27.14707229 0.4375 33 C-5.6274459 37.97636586 -11.39046212 37.4705065 -19 37 C-21.78775976 36.5194946 -24.29446923 35.84879397 -27 35 C-24.50088314 43.23238494 -20.23748259 49.12979193 -13.0625 54 C-5.06395002 58.03345683 5.67423501 57.08585737 14 54.5 C28.47375637 48.24751033 35.08050936 31.21190244 42 18 C43.32 18 44.64 18 46 18 C46.66 16.68 47.32 15.36 48 14 C47.505 16.475 47.505 16.475 47 19 C48.65 19.66 50.3 20.32 52 21 C46.40378278 36.49268557 34.95588297 53.26885696 20.55078125 61.37890625 C11.50527045 65.35449829 -0.45907645 66.13972409 -9.84765625 62.8125 C-20.98936286 57.67966506 -31.21298962 49.59818464 -36.23046875 38.19140625 C-39.59406481 28.61284081 -38.06083369 20.19954299 -34 11 C-30.37749826 4.83360658 -25.66274393 -0.36345484 -19.0625 -3.3125 C-11.69125004 -4.9672704 -6.4283747 -3.70960721 0 0 Z " fill="#050504" transform="translate(154,315)"/>
<path d="M0 0 C6.49818452 3.62689369 10.20630689 8.63966054 12.3125 15.8125 C14.03527564 24.26072669 13.48003652 32.12040513 10 40 C9.68289063 40.72832031 9.36578125 41.45664062 9.0390625 42.20703125 C4.37357518 51.65381586 -2.96372837 59.02546327 -12.96875 62.4765625 C-15 63 -15 63 -17 63 C-16.95875 64.051875 -16.9175 65.10375 -16.875 66.1875 C-16.9948118 69.84175993 -17.57238574 71.72488493 -19 75 C-19.37593066 76.9924325 -19.71979545 78.9918674 -20 81 C-20.66 81 -21.32 81 -22 81 C-22.495 78.03 -22.495 78.03 -23 75 C-24.485 75.495 -24.485 75.495 -26 76 C-26.33 77.65 -26.66 79.3 -27 81 C-27.33 81 -27.66 81 -28 81 C-28 78.69 -28 76.38 -28 74 C-30.475 74.495 -30.475 74.495 -33 75 C-32.67 71.7 -32.34 68.4 -32 65 C-32.33 66.32 -32.66 67.64 -33 69 C-33.66 69 -34.32 69 -35 69 C-34.67 66.03 -34.34 63.06 -34 60 C-32.515 59.505 -32.515 59.505 -31 59 C-30.41774486 57.18210949 -30.41774486 57.18210949 -30 55 C-29.21599699 53.31340529 -28.38524529 51.64819591 -27.5234375 50 C-27.02102539 49.03650635 -26.51861328 48.0730127 -26.00097656 47.08032227 C-25.4644043 46.06381592 -24.92783203 45.04730957 -24.375 44 C-23.82811523 42.95706787 -23.28123047 41.91413574 -22.71777344 40.83959961 C-19.51298932 34.76105309 -16.19508188 28.79953578 -12.65625 22.91015625 C-10.15547598 18.51610756 -7.94628592 13.98115314 -5.75097656 9.42797852 C-4.09432113 6.02606966 -2.41558775 2.92256295 0 0 Z " fill="#F0E3D6" transform="translate(249,257)"/>
<path d="M0 0 C0.05361446 3.13979698 0.0627698 5.10993036 -1 8 C-3.67514406 10.46158853 -6.73170153 11.89181599 -10 13.4375 C-10.82628906 13.86998047 -11.65257812 14.30246094 -12.50390625 14.74804688 C-18.07665044 17.53441897 -22.78485015 18.65541004 -29 19 C-28.49396008 21.16874252 -28.00016187 22.99967627 -27 25 C-30.94090306 30.25453742 -35.48976542 31.29315134 -41.68359375 33.01953125 C-45.98826326 34.29217206 -49.96945707 36.04201015 -54 38 C-53.55008469 34.85059281 -53.00192706 32.0054411 -51.9375 29 C-50.74200496 25.17441588 -50.16339392 21.67321215 -52 18 C-47.35796103 15.46690767 -43.34844008 13.53484401 -38 13 C-38.54140625 14.01320313 -38.54140625 14.01320313 -39.09375 15.046875 C-39.5578125 15.93890625 -40.021875 16.8309375 -40.5 17.75 C-40.9640625 18.63171875 -41.428125 19.5134375 -41.90625 20.421875 C-43.26036656 23.14696472 -43.26036656 23.14696472 -43 27 C-42.46890625 26.46890625 -41.9378125 25.9378125 -41.390625 25.390625 C-35 19 -35 19 -32.765625 16.98828125 C-30.78030494 14.75260003 -30.54505575 13.86049173 -30.5 10.9375 C-30 7 -30 7 -28.25 4.875 C-26 4 -26 4 -23.25 4.8125 C-22.5075 5.204375 -21.765 5.59625 -21 6 C-21.66 7.32 -22.32 8.64 -23 10 C-23.66 10 -24.32 10 -25 10 C-26.57273568 12.8424854 -26.57273568 12.8424854 -27 16 C-26.278125 15.175 -25.55625 14.35 -24.8125 13.5 C-22 11 -22 11 -19.1875 10.6875 C-18.465625 10.790625 -17.74375 10.89375 -17 11 C-16.96648437 10.42894531 -16.93296875 9.85789062 -16.8984375 9.26953125 C-15.52910927 5.81048906 -12.69999635 4.50002479 -9.625 2.6875 C-9.03460938 2.31560547 -8.44421875 1.94371094 -7.8359375 1.56054688 C-3.38791454 -1.12930485 -3.38791454 -1.12930485 0 0 Z " fill="#0B0A09" transform="translate(179,59)"/>
<path d="M0 0 C3.875 1.875 3.875 1.875 5 3 C5.99 2.01 6.98 1.02 8 0 C6.57163301 8.58508076 1.0640173 15.5072694 -3.61108398 22.67407227 C-7.03546272 27.96132455 -10.09179551 33.4116855 -13 39 C-13.33 39 -13.66 39 -14 39 C-14.16831525 35.75008318 -14.33436362 32.50005436 -14.5 29.25 C-14.54769531 28.32960937 -14.59539062 27.40921875 -14.64453125 26.4609375 C-14.68964844 25.57148438 -14.73476562 24.68203125 -14.78125 23.765625 C-14.82314453 22.94868164 -14.86503906 22.13173828 -14.90820312 21.29003906 C-15.152942 15.18458517 -15.152942 15.18458517 -13.1875 12.8125 C-11 11 -11 11 -8 10 C-7.484375 9.484375 -6.96875 8.96875 -6.4375 8.4375 C-5.963125 7.963125 -5.48875 7.48875 -5 7 C-4.34 7 -3.68 7 -3 7 C-2.01 4.69 -1.02 2.38 0 0 Z " fill="#0B0B0A" transform="translate(93,151)"/>
<path d="M0 0 C6.57032007 2.27388126 11.5648808 6.78761467 17 11 C17.99128906 11.73605469 18.98257813 12.47210938 20.00390625 13.23046875 C21.36322266 14.26107422 21.36322266 14.26107422 22.75 15.3125 C23.56984375 15.92738281 24.3896875 16.54226562 25.234375 17.17578125 C27 19 27 19 27 23 C26.34 23 25.68 23 25 23 C25 23.66 25 24.32 25 25 C24.01 25 23.02 25 22 25 C22.33 26.32 22.66 27.64 23 29 C17.94007875 28.43225293 14.08246142 26.05210688 9.75 23.5625 C9.0178125 23.15451172 8.285625 22.74652344 7.53125 22.32617188 C2.1303228 19.2606456 2.1303228 19.2606456 1 17 C2.98 16.67 4.96 16.34 7 16 C3.56638098 12.36440339 0.2026393 9.63886654 -4 7 C-3.67 6.34 -3.34 5.68 -3 5 C-2.31292969 5.49371094 -1.62585938 5.98742187 -0.91796875 6.49609375 C-0.01691406 7.13675781 0.88414062 7.77742187 1.8125 8.4375 C2.70582031 9.07558594 3.59914062 9.71367187 4.51953125 10.37109375 C6.97134334 12.13290268 6.97134334 12.13290268 10 13 C9.34 12.01 8.68 11.02 8 10 C8 8.68 8 7.36 8 6 C7.4225 5.7525 6.845 5.505 6.25 5.25 C3.6997003 3.83316683 1.98214299 2.12372463 0 0 Z " fill="#817A73" transform="translate(167,213)"/>
<path d="M0 0 C5.13159817 5.13159817 6.82458877 14.17884965 9.25 20.9375 C9.52038086 21.68330322 9.79076172 22.42910645 10.06933594 23.19750977 C11.15123827 26.25210853 12 28.73449567 12 32 C10.515 32.495 10.515 32.495 9 33 C8.505 32.505 8.505 32.505 8 32 C7.67 32.66 7.34 33.32 7 34 C6.34 34 5.68 34 5 34 C5 34.66 5 35.32 5 36 C3.68 36 2.36 36 1 36 C-0.49343624 33.29930572 -1.96706493 30.58827625 -3.4375 27.875 C-3.85837891 27.11445313 -4.27925781 26.35390625 -4.71289062 25.5703125 C-6.97758965 21.3670311 -8.57462882 17.84149745 -9 13 C-8.67 13.66 -8.34 14.32 -8 15 C-6.68 15 -5.36 15 -4 15 C-4 15.66 -4 16.32 -4 17 C-3.34 17 -2.68 17 -2 17 C-1.67 15.68 -1.34 14.36 -1 13 C-1 13.66 -1 14.32 -1 15 C-0.34 15 0.32 15 1 15 C1 14.01 1 13.02 1 12 C1.66 12 2.32 12 3 12 C2.7834375 11.38511719 2.566875 10.77023438 2.34375 10.13671875 C2.0653125 9.32847656 1.786875 8.52023438 1.5 7.6875 C1.2215625 6.88699219 0.943125 6.08648437 0.65625 5.26171875 C0 3 0 3 0 0 Z " fill="#DED2C5" transform="translate(211,182)"/>
<path d="M0 0 C1.2271875 0.00902344 2.454375 0.01804687 3.71875 0.02734375 C5.09546875 0.04474609 5.09546875 0.04474609 6.5 0.0625 C6.17 0.7225 5.84 1.3825 5.5 2.0625 C2.79400158 2.53847366 0.16404596 2.90343629 -2.5625 3.1875 C-3.32111328 3.27386719 -4.07972656 3.36023438 -4.86132812 3.44921875 C-6.73996986 3.66189517 -8.61988636 3.86325459 -10.5 4.0625 C-9.51 5.3825 -8.52 6.7025 -7.5 8.0625 C-9.27759374 9.84009374 -11.80939505 9.23026234 -14.21484375 9.2421875 C-21.29073857 9.18611401 -28.08902519 8.32619131 -35.0625 7.1875 C-36.21041016 7.01347656 -37.35832031 6.83945312 -38.54101562 6.66015625 C-47.70008324 5.21314147 -47.70008324 5.21314147 -51.5 3.0625 C-49.92702148 2.97947632 -49.92702148 2.97947632 -48.32226562 2.89477539 C-44.4008846 2.68703949 -40.47971407 2.47553486 -36.55859375 2.26293945 C-34.86724193 2.17175493 -33.17583599 2.08156822 -31.484375 1.99243164 C-29.04151452 1.8635189 -26.59887653 1.73092023 -24.15625 1.59765625 C-23.03700134 1.53977684 -23.03700134 1.53977684 -21.8951416 1.48072815 C-18.30786174 1.28164385 -14.76292111 0.99720228 -11.19921875 0.53515625 C-7.42133349 0.05244863 -3.80590254 -0.03659522 0 0 Z " fill="#DDD1C4" transform="translate(280.5,450.9375)"/>
<path d="M0 0 C0.66 0 1.32 0 2 0 C2.67097694 3.60337813 3.33603957 7.20782296 4 10.8125 C4.19078125 11.83666016 4.3815625 12.86082031 4.578125 13.91601562 C4.75859375 14.89892578 4.9390625 15.88183594 5.125 16.89453125 C5.37636719 18.25348511 5.37636719 18.25348511 5.6328125 19.63989258 C6 22 6 22 6 25 C4.0625 25.5625 4.0625 25.5625 2 26 C1 25 1 25 0.9375 22.4375 C0.958125 21.633125 0.97875 20.82875 1 20 C0.34 20 -0.32 20 -1 20 C-1 21.98 -1 23.96 -1 26 C-2.32 26.33 -3.64 26.66 -5 27 C-5.12117188 25.78441406 -5.24234375 24.56882813 -5.3671875 23.31640625 C-5.53597078 21.73171883 -5.70526816 20.1470861 -5.875 18.5625 C-5.95363281 17.76005859 -6.03226562 16.95761719 -6.11328125 16.13085938 C-6.33845763 14.07829006 -6.66222587 12.03706991 -7 10 C-7.66 9.67 -8.32 9.34 -9 9 C-9.59355614 6.35139573 -9.74209269 3.70802678 -10 1 C-8.35 1 -6.7 1 -5 1 C-5 2.65 -5 4.3 -5 6 C-4.34 6 -3.68 6 -3 6 C-2.67 8.31 -2.34 10.62 -2 13 C0.24828052 8.50343896 0.16682272 4.92127034 0 0 Z " fill="#EDE1D3" transform="translate(297,175)"/>
<path d="M0 0 C0.33 1.98 0.66 3.96 1 6 C1.61230469 6.08636719 2.22460938 6.17273438 2.85546875 6.26171875 C5 7 5 7 6.30078125 8.70703125 C6.63464844 9.40183594 6.96851563 10.09664062 7.3125 10.8125 C7.65925781 11.49957031 8.00601562 12.18664062 8.36328125 12.89453125 C9.10314333 15.34106905 8.82973374 16.61786119 8 19 C6.35 19 4.7 19 3 19 C3 19.99 3 20.98 3 22 C1.35 22.33 -0.3 22.66 -2 23 C-4.87217429 15.97319219 -6.67021516 9.60154046 -7 2 C-4.35261084 0.5393715 -3.10551666 0 0 0 Z " fill="#E2D6C9" transform="translate(326,170)"/>
<path d="M0 0 C0.99 0.33 1.98 0.66 3 1 C2.34 1 1.68 1 1 1 C0.67 2.32 0.34 3.64 0 5 C0.66 5.33 1.32 5.66 2 6 C1.67 6.66 1.34 7.32 1 8 C2.32 8.33 3.64 8.66 5 9 C5 9.99 5 10.98 5 12 C2.69 11.67 0.38 11.34 -2 11 C-1.24849977 14.27773504 -1.24849977 14.27773504 2 16 C2 16.99 2 17.98 2 19 C-0.49361571 17.79618552 -2.68143083 16.54571278 -5 15 C-8.12521833 14.83300768 -8.12521833 14.83300768 -11 15 C-11.33 15.99 -11.66 16.98 -12 18 C-12.99 18.33 -13.98 18.66 -15 19 C-14.11797637 21.22237273 -14.11797637 21.22237273 -11.625 22.375 C-8.9319947 24.04209852 -7.51129023 25.22930124 -6 28 C-6.3125 30.25 -6.3125 30.25 -7 32 C-11.33706387 30.24495933 -12.52220854 27.76425229 -14.65625 23.77734375 C-15.87839757 21.8180892 -15.87839757 21.8180892 -18.15625 21.25390625 C-18.7646875 21.17011719 -19.373125 21.08632812 -20 21 C-20.33 21.99 -20.66 22.98 -21 24 C-21.99 24 -22.98 24 -24 24 C-23.690625 24.9075 -23.38125 25.815 -23.0625 26.75 C-22.2727737 29.16563338 -21.57050703 31.52780285 -21 34 C-23.39520049 32.04029051 -24.0243293 30.91890234 -24.9375 27.875 C-25.288125 26.92625 -25.63875 25.9775 -26 25 C-28.0190304 24.27749876 -28.0190304 24.27749876 -30 24 C-29.02160156 23.50371094 -28.04320312 23.00742188 -27.03515625 22.49609375 C-15.68464263 16.65491918 -6.56391274 11.35170792 0 0 Z " fill="#2F2D2A" transform="translate(356,145)"/>
<path d="M0 0 C1.97498449 3.94996898 2.34867041 5.99415194 2.6328125 10.296875 C2.71660156 11.50214844 2.80039063 12.70742187 2.88671875 13.94921875 C2.96535156 15.20347656 3.04398438 16.45773438 3.125 17.75 C3.21136719 19.01972656 3.29773438 20.28945312 3.38671875 21.59765625 C3.59877276 24.73134331 3.8028956 27.86534294 4 31 C1.50494038 28.50494038 1.64051624 27.32671112 1.375 23.875 C1.30023438 22.96492188 1.22546875 22.05484375 1.1484375 21.1171875 C1.09945312 20.41851562 1.05046875 19.71984375 1 19 C-0.36421031 21.72842061 0.12192789 23.60953318 0.4375 26.625 C0.59025391 28.12933594 0.59025391 28.12933594 0.74609375 29.6640625 C0.82988281 30.43492187 0.91367188 31.20578125 1 32 C-0.9375 32.5625 -0.9375 32.5625 -3 33 C-5.04198984 30.95801016 -4.73774493 27.05741416 -5.0625 24.25 C-5.15192871 23.48953369 -5.24135742 22.72906738 -5.33349609 21.94555664 C-6.06717198 15.27050357 -6.21023481 8.71583405 -6 2 C-5.67 2 -5.34 2 -5 2 C-4.67 4.97 -4.34 7.94 -4 11 C-3.01 11.33 -2.02 11.66 -1 12 C-0.67 8.04 -0.34 4.08 0 0 Z " fill="#1E1C1A" transform="translate(250,176)"/>
<path d="M0 0 C0.33 1.65 0.66 3.3 1 5 C-2.57924315 6.98663184 -6.16405741 8.96299036 -9.75 10.9375 C-11.27367187 11.78344727 -11.27367187 11.78344727 -12.828125 12.64648438 C-13.8078125 13.18466797 -14.7875 13.72285156 -15.796875 14.27734375 C-17.14797363 15.02359009 -17.14797363 15.02359009 -18.52636719 15.78491211 C-20.71533087 16.86016598 -22.61870262 17.53103021 -25 18 C-22.60578294 15.28074022 -20.14304439 13.95718828 -16.875 12.4375 C-13.23783085 10.95747651 -13.23783085 10.95747651 -11 8 C-11.680625 8.350625 -12.36125 8.70125 -13.0625 9.0625 C-16.7087789 10.22620603 -19.28489978 9.72845102 -23 9 C-19.53635252 6.05766681 -15.68349872 4.45746794 -11.5 2.8125 C-10.83613281 2.53986328 -10.17226562 2.26722656 -9.48828125 1.98632812 C-6.06085456 0.6215145 -3.74379429 0 0 0 Z " fill="#141312" transform="translate(183,279)"/>
<path d="M0 0 C0.99 0.33 1.98 0.66 3 1 C1.79618552 3.49361571 0.54571278 5.68143083 -1 8 C0.65 7.01 2.3 6.02 4 5 C2.61946345 8.19119001 1.10060526 10.03343562 -1.5625 12.25 C-5.50448584 15.57222207 -9.31984062 19.00967945 -13.1171875 22.49609375 C-15 24 -15 24 -17 24 C-17 23.34 -17 22.68 -17 22 C-15.28048026 20.46148234 -13.49812503 18.99268241 -11.6875 17.5625 C-7.15615016 13.98901832 -7.15615016 13.98901832 -3 10 C-5.37938926 10.92531805 -7.71559096 11.85779548 -10 13 C-12.28460328 14.14230164 -14.62900387 15.05160155 -17 16 C-18.34050052 16.65213539 -19.67661368 17.31379969 -21 18 C-19.33333333 16.33333333 -17.66666667 14.66666667 -16 13 C-15.29875 12.236875 -14.5975 11.47375 -13.875 10.6875 C-9.61483535 6.70517217 -5.04167522 2.9500824 0 0 Z " fill="#181716" transform="translate(187,291)"/>
<path d="M0 0 C1.32 0.66 2.64 1.32 4 2 C4 2.66 4 3.32 4 4 C4.66 4 5.32 4 6 4 C6.33 5.32 6.66 6.64 7 8 C6.01 7.67 5.02 7.34 4 7 C3.7421875 7.69609375 3.484375 8.3921875 3.21875 9.109375 C1.86607376 12.31764557 0.24950635 15.24025603 -1.5 18.25 C-2.1084375 19.30703125 -2.716875 20.3640625 -3.34375 21.453125 C-5 24 -5 24 -7 25 C-5.57250019 21.20950293 -3.83763458 17.72877544 -1.875 14.1875 C-1.33617187 13.21167969 -0.79734375 12.23585938 -0.2421875 11.23046875 C0.37269531 10.12638672 0.37269531 10.12638672 1 9 C-0.73123194 10.67368407 -2.10729322 12.1632723 -3.4375 14.1875 C-3.953125 14.785625 -4.46875 15.38375 -5 16 C-6.32 16 -7.64 16 -9 16 C-9.66 17.32 -10.32 18.64 -11 20 C-11 16.21986906 -9.81500116 14.82404588 -7.75 11.6875 C-7.11449219 10.71554687 -6.47898438 9.74359375 -5.82421875 8.7421875 C-4.92123047 7.38480469 -4.92123047 7.38480469 -4 6 C-3.55269531 5.32195312 -3.10539063 4.64390625 -2.64453125 3.9453125 C-1.76996971 2.62557704 -0.88637286 1.31183183 0 0 Z " fill="#1E1C1B" transform="translate(200,306)"/>
<path d="M0 0 C-0.33 0.66 -0.66 1.32 -1 2 C-3.97918904 2.4757995 -6.87383618 2.81010896 -9.875 3.0625 C-10.78725342 3.14483887 -11.69950684 3.22717773 -12.6394043 3.31201172 C-24.73415024 4.33092017 -36.87054251 4.66042488 -49 5 C-48.67 3.68 -48.34 2.36 -48 1 C-46.84999512 0.97494385 -45.69999023 0.9498877 -44.51513672 0.92407227 C-40.23231627 0.82961786 -35.94964368 0.72949124 -31.66699219 0.62768555 C-29.81644154 0.58448014 -27.96585471 0.54279542 -26.11523438 0.50268555 C-23.44910806 0.4446328 -20.7831614 0.38104076 -18.1171875 0.31640625 C-17.29507782 0.29969376 -16.47296814 0.28298126 -15.62594604 0.26576233 C-12.2005677 0.17821265 -9.0034197 0.00058871 -5.61767578 -0.58227539 C-3 -1 -3 -1 0 0 Z " fill="#272522" transform="translate(274,450)"/>
<path d="M0 0 C0.99 0.495 0.99 0.495 2 1 C2 2.98 2 4.96 2 7 C2.99 7 3.98 7 5 7 C5.33 7.66 5.66 8.32 6 9 C6 6.03 6 3.06 6 0 C8.70928069 2.70928069 8.84542048 5.01746777 9.625 8.75 C9.88539063 9.96171875 10.14578125 11.1734375 10.4140625 12.421875 C10.95063885 15.69856789 11.11171455 18.68918709 11 22 C9.79371992 19.66785852 8.8345262 17.50357861 8 15 C7.67 17.64 7.34 20.28 7 23 C5.68 23.33 4.36 23.66 3 24 C2.49656628 20.56299372 1.99784476 17.12531992 1.5 13.6875 C1.35691406 12.71103516 1.21382813 11.73457031 1.06640625 10.72851562 C0.93105469 9.79072266 0.79570312 8.85292969 0.65625 7.88671875 C0.53056641 7.02264404 0.40488281 6.15856934 0.27539062 5.26831055 C0 3 0 3 0 0 Z " fill="#171514" transform="translate(303,175)"/>
<path d="M0 0 C0.33 0 0.66 0 1 0 C1.02685938 2.14576637 1.04633088 4.29162645 1.0625 6.4375 C1.07410156 7.63246094 1.08570313 8.82742188 1.09765625 10.05859375 C1 13 1 13 0 14 C-1.99958364 14.04080783 -4.00045254 14.04254356 -6 14 C-6 15.32 -6 16.64 -6 18 C-4.68 18.33 -3.36 18.66 -2 19 C-2.78375 19.2475 -3.5675 19.495 -4.375 19.75 C-7.45455085 21.21645279 -7.67019235 21.98576932 -9 25 C-10.29470975 26.37086915 -11.62150897 27.71340837 -13 29 C-13.66 28.67 -14.32 28.34 -15 28 C-13.35 26.02 -11.7 24.04 -10 22 C-10.66 21.34 -11.32 20.68 -12 20 C-11.01 19.67 -10.02 19.34 -9 19 C-9.144375 17.989375 -9.28875 16.97875 -9.4375 15.9375 C-8.8873955 10.98655946 -7.26288964 9.8408285 -3.69140625 6.64453125 C-1.64174627 4.65167478 -0.74878757 2.74555441 0 0 Z " fill="#E1D5C8" transform="translate(407,369)"/>
<path d="M0 0 C0.78375 0.268125 1.5675 0.53625 2.375 0.8125 C4.25602549 1.42869801 6.14307488 2.03603969 8.0625 2.51953125 C16.61347472 4.75838443 24.20646669 8.92918421 32 13 C31.67 13.99 31.34 14.98 31 16 C26.07102954 15.43971764 22.06586674 13.85331704 17.6875 11.625 C16.73907227 11.16867188 16.73907227 11.16867188 15.77148438 10.703125 C11.12396437 8.3718931 11.12396437 8.3718931 10 5 C8.9171875 4.8453125 8.9171875 4.8453125 7.8125 4.6875 C4.74061475 3.93659472 2.59814146 2.78158272 0 1 C0 0.67 0 0.34 0 0 Z " fill="#1A1817" transform="translate(156,231)"/>
<path d="M0 0 C10.14220948 1.30867219 18.83044451 5.70489231 28 10 C28 11.32 28 12.64 28 14 C23.38506003 13.24598422 19.12976533 11.77477107 14.75 10.1875 C13.65171875 9.8152832 13.65171875 9.8152832 12.53125 9.43554688 C10.421875 8.66796875 10.421875 8.66796875 7 7 C6.65682771 5.66916505 6.32317702 4.33583139 6 3 C3.00384054 1.6954344 3.00384054 1.6954344 0 1 C0 0.67 0 0.34 0 0 Z " fill="#201E1C" transform="translate(157,239)"/>
<path d="M0 0 C1.94824219 0.67333984 1.94824219 0.67333984 4 2 C4.63769531 4.33837891 4.63769531 4.33837891 4.828125 7.2265625 C4.90546875 8.2578125 4.9828125 9.2890625 5.0625 10.3515625 C5.124375 11.43179688 5.18625 12.51203125 5.25 13.625 C5.32734375 14.71296875 5.4046875 15.8009375 5.484375 16.921875 C5.67328888 19.61389782 5.84438754 22.30588028 6 25 C5.01 25 4.02 25 3 25 C-0.20980929 16.91815874 -1.90426525 9.73134805 -1 1 C-0.67 0.67 -0.34 0.34 0 0 Z " fill="#DED2C5" transform="translate(48,199)"/>
<path d="M0 0 C0.99 0.495 0.99 0.495 2 1 C2.4140625 3.28515625 2.4140625 3.28515625 2.625 6.0625 C2.69976562 6.98160156 2.77453125 7.90070313 2.8515625 8.84765625 C2.92503906 9.91306641 2.92503906 9.91306641 3 11 C3.66 11 4.32 11 5 11 C5.3383344 13.37438249 5.67079002 15.74934959 6 18.125 C6.09539062 18.79015625 6.19078125 19.4553125 6.2890625 20.140625 C6.83611453 24.12628981 7.10022182 27.97859938 7 32 C5.68 32 4.36 32 3 32 C-0.58165209 10.5989937 -0.58165209 10.5989937 0 0 Z " fill="#1E1C1B" transform="translate(237,177)"/>
<path d="M0 0 C5.98085372 2.06987651 10.4828328 5.9355227 15.42919922 9.78320312 C16.94426219 10.95682356 18.47385152 12.11161753 20.00390625 13.265625 C20.91011719 13.96171875 21.81632812 14.6578125 22.75 15.375 C23.56984375 16.00148437 24.3896875 16.62796875 25.234375 17.2734375 C25.81703125 17.84320313 26.3996875 18.41296875 27 19 C27 19.99 27 20.98 27 22 C22.517179 21.07611124 19.49703567 18.8597223 15.8125 16.25 C15.17119141 15.81945312 14.52988281 15.38890625 13.86914062 14.9453125 C9.18959073 11.6444262 9.18959073 11.6444262 8.1875 8.23828125 C8.125625 7.49964844 8.06375 6.76101562 8 6 C6.16715557 4.87483915 6.16715557 4.87483915 4 4 C2.62913085 2.70529025 1.28659163 1.37849103 0 0 Z " fill="#191816" transform="translate(167,213)"/>
<path d="M0 0 C2.29633824 3.44450737 2.54016485 5.93812283 3 10 C4.32 10.33 5.64 10.66 7 11 C7.70078445 13.55951745 8.38585196 16.12159702 9.0625 18.6875 C9.26166016 19.40873047 9.46082031 20.12996094 9.66601562 20.87304688 C10.72033808 24.92386473 11.29133534 27.8823458 10 32 C9.34 32 8.68 32 8 32 C0 8.90566038 0 8.90566038 0 0 Z " fill="#191816" transform="translate(218,181)"/>
<path d="M0 0 C4.0018449 0.31347785 8.00092545 0.65311621 12 1 C13.299375 1.103125 14.59875 1.20625 15.9375 1.3125 C21.79398085 2.05854852 27.41195191 4.16855131 33 6 C33 6.99 33 7.98 33 9 C23.7598778 8.2169388 14.5825742 6.60381278 6 3 C4.00379834 2.32204472 2.00461299 1.65266469 0 1 C0 0.67 0 0.34 0 0 Z " fill="#191716" transform="translate(149,251)"/>
<path d="M0 0 C5.13159817 5.13159817 6.82458877 14.17884965 9.25 20.9375 C9.52038086 21.68330322 9.79076172 22.42910645 10.06933594 23.19750977 C11.15123827 26.25210853 12 28.73449567 12 32 C10.515 32.495 10.515 32.495 9 33 C8.20788071 31.10435574 7.41632424 29.20847629 6.625 27.3125 C6.18414062 26.25675781 5.74328125 25.20101562 5.2890625 24.11328125 C4.86367187 23.08589844 4.43828125 22.05851562 4 21 C3.61585938 20.11183594 3.23171875 19.22367188 2.8359375 18.30859375 C1.70016546 15.17195228 2 12.33034703 2 9 C1.45823896 5.9671056 0.75822774 2.98552173 0 0 Z " fill="#191816" transform="translate(211,182)"/>
<path d="M0 0 C2.31682158 3.47523237 2.66600923 6.39988917 3.125 10.4375 C3.20991699 11.14455078 3.29483398 11.85160156 3.38232422 12.58007812 C4.07112611 18.72801617 4.21081325 24.81614476 4 31 C2.68 31 1.36 31 0 31 C-1.37250969 20.53461361 -1.13549779 10.48307782 0 0 Z " fill="#1A1917" transform="translate(256,176)"/>
<path d="M0 0 C0 0.99 0 1.98 0 3 C-10.32633522 6.55519031 -20.10979695 8.95166149 -31 10 C-31 9.34 -31 8.68 -31 8 C-27.7 7.34 -24.4 6.68 -21 6 C-21 5.34 -21 4.68 -21 4 C-18.25124318 3.32781493 -15.50119274 2.66207565 -12.75 2 C-11.97269531 1.80921875 -11.19539063 1.6184375 -10.39453125 1.421875 C-9.64042969 1.24140625 -8.88632813 1.0609375 -8.109375 0.875 C-7.41811523 0.70742188 -6.72685547 0.53984375 -6.01464844 0.3671875 C-4 0 -4 0 0 0 Z " fill="#201F1D" transform="translate(182,274)"/>
<path d="M0 0 C2.8590415 5.11994444 3.55829205 10.80570348 4.6875 16.5 C4.92533203 17.64082031 5.16316406 18.78164062 5.40820312 19.95703125 C5.62798828 21.05402344 5.84777344 22.15101563 6.07421875 23.28125 C6.27619873 24.28220703 6.47817871 25.28316406 6.6862793 26.31445312 C6.98987616 28.91333674 6.83325086 30.54655939 6 33 C5.01 32.67 4.02 32.34 3 32 C2.30323721 28.68937759 1.61915008 25.37626427 0.9375 22.0625 C0.63875977 20.64420898 0.63875977 20.64420898 0.33398438 19.19726562 C0.15029297 18.29814453 -0.03339844 17.39902344 -0.22265625 16.47265625 C-0.39547119 15.64000244 -0.56828613 14.80734863 -0.74633789 13.94946289 C-0.87190063 12.98447876 -0.87190063 12.98447876 -1 12 C-0.67 11.67 -0.34 11.34 0 11 C0.07226502 9.14712498 0.0838122 7.29166122 0.0625 5.4375 C0.05347656 4.42558594 0.04445312 3.41367188 0.03515625 2.37109375 C0.02355469 1.58863281 0.01195312 0.80617187 0 0 Z " fill="#161413" transform="translate(231,178)"/>
<path d="M0 0 C1.98 0 3.96 0 6 0 C6.78067496 3.41545293 7.08972193 6.50084487 7 10 C7 11.32 7 12.64 7 14 C4.49515403 16.41847197 3.53986194 17 0 17 C0.59619955 12.13103697 1.56976822 7.67209049 3 3 C2.34 3 1.68 3 1 3 C0.71125 3.78375 0.4225 4.5675 0.125 5.375 C-1 8 -1 8 -3 10 C-2.49287967 6.28111761 -1.88391785 3.26545761 0 0 Z " fill="#E2D6C9" transform="translate(425,346)"/>
<path d="M0 0 C0 0.99 0 1.98 0 3 C-10.37430625 5.36999238 -20.37681001 6.5951741 -31 7 C-27.5647952 4.70986347 -26.014669 4.82157027 -22 5 C-21.67 4.01 -21.34 3.02 -21 2 C-13.90673679 0.27669093 -7.29031024 -0.2494783 0 0 Z " fill="#181715" transform="translate(181,269)"/>
<path d="M0 0 C11.12945146 0.42165419 22.03285869 0.93865775 33 3 C33 3.99 33 4.98 33 6 C30.4580411 6.05434116 27.91726318 6.0938339 25.375 6.125 C24.66214844 6.14175781 23.94929688 6.15851563 23.21484375 6.17578125 C18.7387836 6.21684602 15.22050722 5.69086567 11 4 C11 3.34 11 2.68 11 2 C9.9275 2.04125 8.855 2.0825 7.75 2.125 C4.22276513 2.0074255 2.938927 1.65152093 0 0 Z " fill="#191716" transform="translate(148,259)"/>
<path d="M0 0 C-0.12109375 1.71875 -0.12109375 1.71875 -1 4 C-2.99922093 5.6674853 -4.89861398 7.08376396 -7.0625 8.5 C-7.65015137 8.89437256 -8.23780273 9.28874512 -8.84326172 9.69506836 C-19.88634086 17 -19.88634086 17 -25 17 C-23.906875 16.278125 -22.81375 15.55625 -21.6875 14.8125 C-19.25798041 13.20810027 -18.07732976 12.13905985 -16.64453125 9.5625 C-14.55653154 6.30898976 -12.35249456 5.07327819 -9 3.1875 C-7.948125 2.58292969 -6.89625 1.97835938 -5.8125 1.35546875 C-3 0 -3 0 0 0 Z " fill="#191716" transform="translate(186,286)"/>
<path d="M0 0 C0.33 0.66 0.66 1.32 1 2 C2.32 2 3.64 2 5 2 C6.34287473 4.74569923 7.67446996 7.49594266 9 10.25 C9.57234375 11.41595703 9.57234375 11.41595703 10.15625 12.60546875 C10.69765625 13.73662109 10.69765625 13.73662109 11.25 14.890625 C11.58515625 15.58188477 11.9203125 16.27314453 12.265625 16.98535156 C13 19 13 19 13 23 C12.01 23 11.02 23 10 23 C8.50656376 20.29930572 7.03293507 17.58827625 5.5625 14.875 C5.14162109 14.11445313 4.72074219 13.35390625 4.28710938 12.5703125 C2.02241035 8.3670311 0.42537118 4.84149745 0 0 Z " fill="#141312" transform="translate(202,195)"/>
<path d="M0 0 C2.91067643 -0.2551353 4.49124439 -0.34779338 6.94458008 1.3293457 C7.54681396 1.93866943 8.14904785 2.54799316 8.76953125 3.17578125 C9.43017578 3.83900391 10.09082031 4.50222656 10.77148438 5.18554688 C11.44501953 5.88744141 12.11855469 6.58933594 12.8125 7.3125 C13.50537109 8.00279297 14.19824219 8.69308594 14.91210938 9.40429688 C20 14.5924415 20 14.5924415 20 18 C16.75769253 17.41093213 15.0204708 16.43334061 12.6171875 14.19921875 C12.00746094 13.63396484 11.39773437 13.06871094 10.76953125 12.48632812 C10.14433594 11.89271484 9.51914063 11.29910156 8.875 10.6875 C8.24207031 10.10548828 7.60914063 9.52347656 6.95703125 8.92382812 C3.93878929 6.0946268 1.70848664 3.81948816 0 0 Z " fill="#100F0E" transform="translate(178,213)"/>
<path d="M0 0 C4.63227226 3.58473933 8.05531292 7.29508233 11.4375 12.0625 C11.89576172 12.67416016 12.35402344 13.28582031 12.82617188 13.91601562 C14.12109375 15.72265625 14.12109375 15.72265625 16 19 C15.61743164 21.20483398 15.61743164 21.20483398 15 23 C11.59807479 19.65839261 8.34688484 16.25188862 5.25 12.625 C4.47140625 11.73039063 3.6928125 10.83578125 2.890625 9.9140625 C0.70250331 6.54146172 0.29572639 3.9725912 0 0 Z " fill="#161513" transform="translate(190,201)"/>
<path d="M0 0 C5.28182156 2.41106242 7.17379803 6.03329019 9.8125 10.9375 C10.21919922 11.65357422 10.62589844 12.36964844 11.04492188 13.10742188 C13.11128286 16.85465465 14 18.56387286 14 23 C9.58231993 21.49374295 7.68881785 18.07467703 5.3125 14.3125 C4.90966797 13.71244141 4.50683594 13.11238281 4.09179688 12.49414062 C1.39532606 8.28909151 0.37737734 4.98266014 0 0 Z " fill="#131211" transform="translate(196,198)"/>
<path d="M0 0 C-1.39113937 7.85993744 -9.41995522 13.43528394 -15.1796875 18.3359375 C-17.09123666 19.88379879 -17.09123666 19.88379879 -18 22 C-18.66 22 -19.32 22 -20 22 C-19.03250577 19.84174363 -18.21906689 18.2099391 -16.5 16.5625 C-14.84144543 15.05280008 -14.84144543 15.05280008 -14.21484375 12.734375 C-12.70291256 9.33131444 -10.70143483 7.30318431 -8.0625 4.6875 C-7.18722656 3.80449219 -6.31195313 2.92148437 -5.41015625 2.01171875 C-3 0 -3 0 0 0 Z " fill="#1C1A19" transform="translate(195,298)"/>
<path d="M0 0 C0.66 0 1.32 0 2 0 C2 0.99 2 1.98 2 3 C2.99 3.33 3.98 3.66 5 4 C5.77040851 10.06696699 6.09706112 15.88514973 6 22 C4.68 22 3.36 22 2 22 C1.66076424 19.64655194 1.32849466 17.2924516 1 14.9375 C0.85691406 13.95233398 0.85691406 13.95233398 0.7109375 12.94726562 C0.11112326 8.59861237 -0.09127093 4.38670929 0 0 Z " fill="#22201E" transform="translate(286,181)"/>
<path d="M0 0 C0.33 0 0.66 0 1 0 C1.33 2.97 1.66 5.94 2 9 C2.66 9 3.32 9 4 9 C4.33 15.27 4.66 21.54 5 28 C3.68 28 2.36 28 1 28 C-0.05838127 21.99139451 -0.11662571 16.15372439 -0.0625 10.0625 C-0.05798828 9.09248047 -0.05347656 8.12246094 -0.04882812 7.12304688 C-0.0371315 4.7486324 -0.02074086 2.37434979 0 0 Z " fill="#191816" transform="translate(280,176)"/>
<path d="M0 0 C2.69556302 1.31253351 5.24827336 2.82419499 7.8125 4.375 C8.50537109 4.77460938 9.19824219 5.17421875 9.91210938 5.5859375 C11.66421109 6.63547232 13.34015226 7.80992049 15 9 C15 9.99 15 10.98 15 12 C9.94007875 11.43225293 6.08246142 9.05210688 1.75 6.5625 C1.0178125 6.15451172 0.285625 5.74652344 -0.46875 5.32617188 C-5.8696772 2.2606456 -5.8696772 2.2606456 -7 0 C-4.18348991 -1.40825505 -3.03125108 -0.88497644 0 0 Z " fill="#121110" transform="translate(175,230)"/>
<path d="M0 0 C0.99 0.495 0.99 0.495 2 1 C2.77783203 3.42089844 2.77783203 3.42089844 3.5078125 6.609375 C3.77207031 7.75664062 4.03632813 8.90390625 4.30859375 10.0859375 C4.57800781 11.29507813 4.84742188 12.50421875 5.125 13.75 C5.40214844 14.94367188 5.67929688 16.13734375 5.96484375 17.3671875 C8.17908345 27.11856823 8.17908345 27.11856823 8 32 C7.34 32 6.68 32 6 32 C6 32.66 6 33.32 6 34 C5.34 33.67 4.68 33.34 4 33 C3.72525837 31.14549397 3.46648423 29.28744833 3.28125 27.421875 C2.98468221 24.86809678 2.50699804 22.39507851 2 19.875 C0.75952959 13.29310103 0.37051322 6.67898823 0 0 Z " fill="#878078" transform="translate(224,179)"/>
<path d="M0 0 C0.56847656 0.144375 1.13695312 0.28875 1.72265625 0.4375 C5.37749304 1.3161252 8.47162093 2.03048341 12.25 1.8125 C18.18940036 2.10947002 23.7606706 4.2154613 29 7 C30.38671875 9.171875 30.38671875 9.171875 31 11 C25.25 10.125 25.25 10.125 23 9 C23 9.66 23 10.32 23 11 C21.68 10.34 20.36 9.68 19 9 C19 8.34 19 7.68 19 7 C18.29875 6.81824219 17.5975 6.63648438 16.875 6.44921875 C11.10321471 4.92000933 5.55100893 3.19945637 0 1 C0 0.67 0 0.34 0 0 Z " fill="#978F86" transform="translate(151,244)"/>
<path d="M0 0 C-0.33 1.32 -0.66 2.64 -1 4 C-1 3.34 -1 2.68 -1 2 C-2.32 2 -3.64 2 -5 2 C-4.5875 2.969375 -4.175 3.93875 -3.75 4.9375 C-3.481875 5.57300781 -3.21375 6.20851562 -2.9375 6.86328125 C-2.28308505 8.354802 -1.59242697 9.83071309 -0.875 11.29296875 C2.05218182 17.36077273 2.05218182 17.36077273 1.75 21.0625 C1.37875 22.0215625 1.37875 22.0215625 1 23 C0.01 23 -0.98 23 -2 23 C-4.87217429 15.97319219 -6.67021516 9.60154046 -7 2 C-4.35261084 0.5393715 -3.10551666 0 0 0 Z " fill="#211F1D" transform="translate(326,170)"/>
<path d="M0 0 C0.7425 0.391875 1.485 0.78375 2.25 1.1875 C1.59 2.5075 0.93 3.8275 0.25 5.1875 C-0.41 5.1875 -1.07 5.1875 -1.75 5.1875 C-1.9975 5.765 -2.245 6.3425 -2.5 6.9375 C-3.91683317 9.4877997 -5.62627537 11.20535701 -7.75 13.1875 C-7.75 3.40178571 -7.75 3.40178571 -5 0.0625 C-2.75 -0.8125 -2.75 -0.8125 0 0 Z M-11.75 14.1875 C-11.09 14.5175 -10.43 14.8475 -9.75 15.1875 C-12.72 18.1575 -15.69 21.1275 -18.75 24.1875 C-18.75 21.1875 -18.75 21.1875 -17.21875 19.36328125 C-16.5690625 18.74839844 -15.919375 18.13351563 -15.25 17.5 C-14.6003125 16.87738281 -13.950625 16.25476563 -13.28125 15.61328125 C-12.52328125 14.90751953 -12.52328125 14.90751953 -11.75 14.1875 Z " fill="#171514" transform="translate(155.75,63.8125)"/>
<path d="M0 0 C0.66 0 1.32 0 2 0 C2.67097694 3.60337813 3.33603957 7.20782296 4 10.8125 C4.28617187 12.34874023 4.28617187 12.34874023 4.578125 13.91601562 C4.75859375 14.89892578 4.9390625 15.88183594 5.125 16.89453125 C5.29257812 17.80050049 5.46015625 18.70646973 5.6328125 19.63989258 C6 22 6 22 6 25 C4.0625 25.5625 4.0625 25.5625 2 26 C-0.05875806 23.94124194 0.58325166 19.77846275 0.4375 16.9375 C0.39431641 16.19822266 0.35113281 15.45894531 0.30664062 14.69726562 C0.03622888 9.79122388 -0.03903791 4.91319953 0 0 Z " fill="#1D1B19" transform="translate(297,175)"/>
<path d="M0 0 C0.66 0 1.32 0 2 0 C0.47512736 7.03787373 -1.22850751 14.0203196 -3 21 C-4.98 20.67 -6.96 20.34 -9 20 C-7.55676531 15.26210835 -5.62773267 11.01141849 -3.375 6.625 C-2.88773438 5.66400391 -2.88773438 5.66400391 -2.390625 4.68359375 C-1.59742593 3.12052499 -0.79922969 1.55999378 0 0 Z " fill="#E9DDD0" transform="translate(210,314)"/>
<path d="M0 0 C-0.33 0.99 -0.66 1.98 -1 3 C-1.66 3 -2.32 3 -3 3 C-2.67 5.31 -2.34 7.62 -2 10 C-4 7 -4 7 -4 3 C-4.66 3 -5.32 3 -6 3 C-5.67 6.3 -5.34 9.6 -5 13 C-5.66 13 -6.32 13 -7 13 C-7 14.65 -7 16.3 -7 18 C-9.92987626 12.72622272 -10.11710798 7.97250691 -10 2 C-8.71211992 1.46987262 -7.41953322 0.9511671 -6.125 0.4375 C-5.40570313 0.14746094 -4.68640625 -0.14257812 -3.9453125 -0.44140625 C-2 -1 -2 -1 0 0 Z " fill="#10100E" transform="translate(242,318)"/>
<path d="M0 0 C0.99 0.33 1.98 0.66 3 1 C2.43109572 5.11965167 0.20866423 7.58940104 -2.375 10.75 C-3.16648438 11.73484375 -3.95796875 12.7196875 -4.7734375 13.734375 C-5.50820312 14.48203125 -6.24296875 15.2296875 -7 16 C-7.99 16 -8.98 16 -10 16 C-9.47898196 11.90322799 -8.38185567 9.86433761 -5.5625 6.875 C-3.45765739 4.61635887 -1.72295502 2.58443252 0 0 Z " fill="#161413" transform="translate(196,302)"/>
<path d="M0 0 C2.65554859 2.65554859 3.36073753 5.28217644 4.625 8.8125 C5.07101562 10.03582031 5.51703125 11.25914062 5.9765625 12.51953125 C6.88236794 15.59996121 7.22945124 17.82994999 7 21 C5.68 21.33 4.36 21.66 3 22 C0.84278299 14.52678392 -0.46530864 7.78961124 0 0 Z " fill="#1D1C1A" transform="translate(314,174)"/>
<path d="M0 0 C0.99 0.33 1.98 0.66 3 1 C3.625 2.875 3.625 2.875 4 5 C4.33 5.99 4.66 6.98 5 8 C5.66 8 6.32 8 7 8 C7 8.99 7 9.98 7 11 C6.360625 10.67 5.72125 10.34 5.0625 10 C3.23205433 8.92728775 3.23205433 8.92728775 2 9 C1.67 9.99 1.34 10.98 1 12 C0.608125 11.566875 0.21625 11.13375 -0.1875 10.6875 C-2.28319278 8.73633776 -4.51589333 7.40989838 -7 6 C-6.34 5.01 -5.68 4.02 -5 3 C-4.34 3 -3.68 3 -3 3 C-1.37485532 1.54166642 -1.37485532 1.54166642 0 0 Z " fill="#D0C5B9" transform="translate(347,159)"/>
<path d="M0 0 C0.66 0 1.32 0 2 0 C2.33 0.99 2.66 1.98 3 3 C4.65 2.67 6.3 2.34 8 2 C6.68 5.63 5.36 9.26 4 13 C2.68 12.67 1.36 12.34 0 12 C-1.1671568 8.49852959 -1.13357453 5.67329964 -1 2 C-0.67 1.34 -0.34 0.68 0 0 Z " fill="#100F0E" transform="translate(69,194)"/>
<path d="M0 0 C0.99 0.33 1.98 0.66 3 1 C2.54686627 5.62034573 1.00664515 7.36625225 -2.5 10.3125 C-3.3146875 11.00988281 -4.129375 11.70726562 -4.96875 12.42578125 C-7 14 -7 14 -8 14 C-8.33 12.35 -8.66 10.7 -9 9 C-9.33 9 -9.66 9 -10 9 C-10 7.35 -10 5.7 -10 4 C-7.03 5.98 -7.03 5.98 -4 8 C-3.566875 6.8553125 -3.566875 6.8553125 -3.125 5.6875 C-2 3 -2 3 0 0 Z " fill="#E0D4C7" transform="translate(47,168)"/>
<path d="M0 0 C3.45925163 1.2491742 6.14693203 2.67527795 9 5 C9.33 4.34 9.66 3.68 10 3 C10.33 3.99 10.66 4.98 11 6 C6.89473684 11.70175439 6.89473684 11.70175439 3 13 C1.35 11.35 -0.3 9.7 -2 8 C-1.67 7.34 -1.34 6.68 -1 6 C0.98 7.65 2.96 9.3 5 11 C5 10.01 5 9.02 5 8 C4.34 8 3.68 8 3 8 C0.95830515 5.09451118 0 3.59857954 0 0 Z " fill="#22201E" transform="translate(349,159)"/>
<path d="M0 0 C1.27875 0.144375 2.5575 0.28875 3.875 0.4375 C8.91280884 0.99814645 13.95536879 1.50501531 19 2 C19 2.66 19 3.32 19 4 C8.77 4 -1.46 4 -12 4 C-12 3.67 -12 3.34 -12 3 C-11.21753906 2.95101563 -10.43507812 2.90203125 -9.62890625 2.8515625 C-8.61699219 2.77679688 -7.60507813 2.70203125 -6.5625 2.625 C-5.55316406 2.55539062 -4.54382813 2.48578125 -3.50390625 2.4140625 C-2.26447266 2.20910156 -2.26447266 2.20910156 -1 2 C-0.67 1.34 -0.34 0.68 0 0 Z " fill="#8A827A" transform="translate(160,264)"/>
<path d="M0 0 C1.32 0.33 2.64 0.66 4 1 C4.18451025 13.66970387 4.18451025 13.66970387 3 19 C2.34 19 1.68 19 1 19 C0.15976812 14.64667264 -0.10770995 10.55557481 -0.0625 6.125 C-0.05347656 4.97257812 -0.04445312 3.82015625 -0.03515625 2.6328125 C-0.02355469 1.76398438 -0.01195312 0.89515625 0 0 Z " fill="#23211F" transform="translate(226,319)"/>
<path d="M0 0 C1.98 0.495 1.98 0.495 4 1 C3.50873071 7.36559573 3.00344253 13.69264693 2 20 C1.67 20 1.34 20 1 20 C1 17.69 1 15.38 1 13 C0.34 13 -0.32 13 -1 13 C-1.0272415 11.58344207 -1.04650467 10.16672955 -1.0625 8.75 C-1.07410156 7.96109375 -1.08570313 7.1721875 -1.09765625 6.359375 C-1.00385306 4.09308998 -0.63241063 2.1711105 0 0 Z " fill="#151413" transform="translate(220,318)"/>
<path d="M0 0 C0.33 0.66 0.66 1.32 1 2 C1.63292969 2.12761719 2.26585937 2.25523437 2.91796875 2.38671875 C5 3 5 3 6.30078125 4.70703125 C6.63464844 5.40183594 6.96851563 6.09664062 7.3125 6.8125 C7.83263672 7.84310547 7.83263672 7.84310547 8.36328125 8.89453125 C9.10314333 11.34106905 8.82973374 12.61786119 8 15 C7.01 15 6.02 15 5 15 C4.16013916 13.06532058 3.32831973 11.12714871 2.5 9.1875 C2.0359375 8.10855469 1.571875 7.02960938 1.09375 5.91796875 C0 3 0 3 0 0 Z " fill="#0F0E0E" transform="translate(326,174)"/>
<path d="M0 0 C2.5625 2.25 2.5625 2.25 5 5 C5.08953673 7.95471211 4.00950823 8.98786881 2.1875 11.3125 C1.465625 11.869375 0.74375 12.42625 0 13 C-1.32 12.67 -2.64 12.34 -4 12 C-2.68 8.04 -1.36 4.08 0 0 Z " fill="#E0D4C7" transform="translate(433,326)"/>
<path d="M0 0 C3.96 0 7.92 0 12 0 C12 1.32 12 2.64 12 4 C1.605 4.99 1.605 4.99 -9 6 C-9 5.34 -9 4.68 -9 4 C-12.96 4 -16.92 4 -21 4 C-21 3.67 -21 3.34 -21 3 C-10.77 3 -0.54 3 10 3 C10 2.34 10 1.68 10 1 C6.7 1 3.4 1 0 1 C0 0.67 0 0.34 0 0 Z " fill="#DED2C5" transform="translate(169,265)"/>
<path d="M0 0 C0.99 0.66 1.98 1.32 3 2 C-0.57924315 3.98663184 -4.16405741 5.96299036 -7.75 7.9375 C-9.27367187 8.78344727 -9.27367187 8.78344727 -10.828125 9.64648438 C-11.8078125 10.18466797 -12.7875 10.72285156 -13.796875 11.27734375 C-15.14797363 12.02359009 -15.14797363 12.02359009 -16.52636719 12.78491211 C-18.71533087 13.86016598 -20.61870262 14.53103021 -23 15 C-19.97254586 11.55150919 -16.2946811 10.14194276 -12.1796875 8.28125 C-9.67889371 7.13268919 -9.67889371 7.13268919 -9 4 C-7.0390625 2.76171875 -7.0390625 2.76171875 -4.625 1.6875 C-3.83351562 1.32011719 -3.04203125 0.95273437 -2.2265625 0.57421875 C-1.12441406 0.28998047 -1.12441406 0.28998047 0 0 Z " fill="#7D766F" transform="translate(181,282)"/>
<path d="M0 0 C1.97498449 3.94996898 2.34867041 5.99415194 2.6328125 10.296875 C2.71660156 11.50214844 2.80039063 12.70742187 2.88671875 13.94921875 C2.96535156 15.20347656 3.04398438 16.45773438 3.125 17.75 C3.25455078 19.65458984 3.25455078 19.65458984 3.38671875 21.59765625 C3.59877276 24.73134331 3.8028956 27.86534294 4 31 C1.07422062 28.07422062 1.57340823 25.21663843 1.34375 21.21484375 C1.2303125 20.48394531 1.116875 19.75304687 1 19 C0.34 18.67 -0.32 18.34 -1 18 C-0.505 9.09 -0.505 9.09 0 0 Z " fill="#7D776F" transform="translate(250,176)"/>
<path d="M0 0 C3.44862127 1.14954042 3.84195809 1.82527151 5.6875 4.8125 C6.12449219 5.49957031 6.56148438 6.18664062 7.01171875 6.89453125 C8 9 8 9 8 13 C7.01 13.33 6.02 13.66 5 14 C-0.74031891 5.92255125 -0.74031891 5.92255125 0 0 Z " fill="#191716" transform="translate(336,169)"/>
<path d="M0 0 C0.99 0 1.98 0 3 0 C4.5197276 6.3552245 3.1663492 10.91708727 1 17 C0.67 17 0.34 17 0 17 C-0.125 10.25 -0.125 10.25 1 8 C0.01 7.67 -0.98 7.34 -2 7 C-1.34 4.69 -0.68 2.38 0 0 Z " fill="#161514" transform="translate(59,214)"/>
<path d="M0 0 C1.32 0 2.64 0 4 0 C4.24234375 0.53109375 4.4846875 1.0621875 4.734375 1.609375 C6.69412559 5.73992624 8.46628972 8.97110547 12 12 C11.67 12.99 11.34 13.98 11 15 C10.34 14.34 9.68 13.68 9 13 C8.34 13 7.68 13 7 13 C6.566875 12.030625 6.13375 11.06125 5.6875 10.0625 C4.2985139 6.72268235 4.2985139 6.72268235 1 6 C0.67 4.02 0.34 2.04 0 0 Z " fill="#E6D9CC" transform="translate(326,170)"/>
<path d="M0 0 C1.65 0.33 3.3 0.66 5 1 C6 4 6 4 4.9375 6.1875 C3 8 3 8 -0.1875 8.25 C-1.115625 8.1675 -2.04375 8.085 -3 8 C-3 4.42424104 -1.91159393 2.94704065 0 0 Z " fill="#E2D6C9" transform="translate(415,375)"/>
<path d="M0 0 C1.9375 0.8125 1.9375 0.8125 4 2 C4.33 2.99 4.66 3.98 5 5 C3.06984029 8.11795029 1.97976555 9.7601164 -1.6484375 10.6484375 C-2.42445312 10.76445312 -3.20046875 10.88046875 -4 11 C-3.5247412 9.35303396 -3.04468109 7.70745272 -2.5625 6.0625 C-2.29566406 5.14597656 -2.02882813 4.22945312 -1.75390625 3.28515625 C-1 1 -1 1 0 0 Z " fill="#DDD1C4" transform="translate(93,151)"/>
<path d="M0 0 C0.33 0.66 0.66 1.32 1 2 C1.66 2 2.32 2 3 2 C3.33 3.32 3.66 4.64 4 6 C3.01 5.67 2.02 5.34 1 5 C0.7421875 5.69609375 0.484375 6.3921875 0.21875 7.109375 C-1.13392624 10.31764557 -2.75049365 13.24025603 -4.5 16.25 C-5.1084375 17.30703125 -5.716875 18.3640625 -6.34375 19.453125 C-8 22 -8 22 -10 23 C-8.50746792 18.79377323 -6.3892524 15.10414055 -4.12109375 11.28125 C-2.92290117 8.84311597 -2.46686257 6.66464014 -2 4 C-0.9375 1.6875 -0.9375 1.6875 0 0 Z " fill="#77716A" transform="translate(203,308)"/>
<path d="M0 0 C0.66 0 1.32 0 2 0 C2.33 2.31 2.66 4.62 3 7 C3.66 5.68 4.32 4.36 5 3 C5.33 6.63 5.66 10.26 6 14 C5.34 14 4.68 14 4 14 C4 15.98 4 17.96 4 20 C1.68600977 17.68600977 1.67743196 17.01395276 1.3671875 13.8671875 C1.28339844 13.06152344 1.19960938 12.25585938 1.11328125 11.42578125 C1.03464844 10.58402344 0.95601563 9.74226562 0.875 8.875 C0.78863281 8.02550781 0.70226562 7.17601562 0.61328125 6.30078125 C0.40097443 4.20130273 0.19946397 2.10073758 0 0 Z " fill="#928A82" transform="translate(292,181)"/>
<path d="M0 0 C0.763125 0.66 1.52625 1.32 2.3125 2 C4.84277939 4.29850538 4.84277939 4.29850538 8 4 C9.82421875 5.96875 9.82421875 5.96875 11.6875 8.5 C12.31011719 9.3353125 12.93273437 10.170625 13.57421875 11.03125 C14.04472656 11.6809375 14.51523438 12.330625 15 13 C14.67 13.66 14.34 14.32 14 15 C11.37812506 13.95125002 10.20628639 13.35068687 8.75 10.875 C8.5025 10.25625 8.255 9.6375 8 9 C7.34 9 6.68 9 6 9 C4.4921875 7.5390625 4.4921875 7.5390625 2.875 5.625 C2.06675781 4.68527344 2.06675781 4.68527344 1.2421875 3.7265625 C0 2 0 2 0 0 Z " fill="#978F87" transform="translate(189,210)"/>
<path d="M0 0 C3.5054923 6.25980767 4.39442715 12.97216771 5 20 C2.42327573 16.85488067 0.82607507 13.67836053 -0.75 9.9375 C-1.19859375 8.89464844 -1.6471875 7.85179687 -2.109375 6.77734375 C-3 4 -3 4 -2 1 C-2 1.66 -2 2.32 -2 3 C-1.34 3 -0.68 3 0 3 C0 2.01 0 1.02 0 0 Z " fill="#908980" transform="translate(212,194)"/>
<path d="M0 0 C1.2077558 3.62326739 0.54311128 4.64146369 -1 8 C-4.3 8.33 -7.6 8.66 -11 9 C-11 8.34 -11 7.68 -11 7 C-10.01 6.34 -9.02 5.68 -8 5 C-6.80767387 2.94996045 -6.80767387 2.94996045 -6 1 C-5.38125 1.20625 -4.7625 1.4125 -4.125 1.625 C-3.073125 1.810625 -3.073125 1.810625 -2 2 C-1.34 1.34 -0.68 0.68 0 0 Z " fill="#211F1E" transform="translate(125,79)"/>
<path d="M0 0 C6.48292295 -0.3669579 6.48292295 -0.3669579 8.9375 1.375 C10 3 10 3 10 5 C7.03 5.66 4.06 6.32 1 7 C0.67 4.69 0.34 2.38 0 0 Z " fill="#E6DACC" transform="translate(225,31)"/>
<path d="M0 0 C-2.79035046 1.00380916 -5.58214855 2.0031945 -8.375 3 C-9.56609375 3.42925781 -9.56609375 3.42925781 -10.78125 3.8671875 C-11.92207031 4.27324219 -11.92207031 4.27324219 -13.0859375 4.6875 C-13.7876709 4.93886719 -14.4894043 5.19023437 -15.21240234 5.44921875 C-17 6 -17 6 -19 6 C-19 5.34 -19 4.68 -19 4 C-19.66 3.67 -20.32 3.34 -21 3 C-18.2547237 2.1068861 -15.50556099 1.2352727 -12.75 0.375 C-11.97269531 0.11976563 -11.19539062 -0.13546875 -10.39453125 -0.3984375 C-9.26337891 -0.74648438 -9.26337891 -0.74648438 -8.109375 -1.1015625 C-7.41811523 -1.32150879 -6.72685547 -1.54145508 -6.01464844 -1.76806641 C-3.44488662 -2.06390665 -2.17610868 -1.31846585 0 0 Z " fill="#D1C6BA" transform="translate(183,279)"/>
<path d="M0 0 C0.99 0.33 1.98 0.66 3 1 C3.33 6.94 3.66 12.88 4 19 C3.34 19.33 2.68 19.66 2 20 C0.88176185 17.76352369 0.80603939 16.35108471 0.68359375 13.8671875 C0.62075195 12.65869141 0.62075195 12.65869141 0.55664062 11.42578125 C0.51732422 10.58402344 0.47800781 9.74226562 0.4375 8.875 C0.39431641 8.02550781 0.35113281 7.17601562 0.30664062 6.30078125 C0.20045764 4.20071777 0.09971503 2.10038052 0 0 Z " fill="#DACEC2" transform="translate(270,185)"/>
<path d="M0 0 C2.70928069 2.70928069 2.84542048 5.01746777 3.625 8.75 C3.88539063 9.96171875 4.14578125 11.1734375 4.4140625 12.421875 C4.95063885 15.69856789 5.11171455 18.68918709 5 22 C3.79371992 19.66785852 2.8345262 17.50357861 2 15 C1.34 15.66 0.68 16.32 0 17 C-1.21348315 8.91011236 -1.21348315 8.91011236 0 5 C0.03786901 3.33376361 0.04627845 1.66602403 0 0 Z " fill="#7E7770" transform="translate(309,175)"/>
<path d="M0 0 C-2 3 -2 3 -3.765625 3.68359375 C-6.45381833 4.06426448 -9.03544431 4.09481614 -11.75 4.0625 C-12.73484375 4.05347656 -13.7196875 4.04445313 -14.734375 4.03515625 C-15.48203125 4.02355469 -16.2296875 4.01195312 -17 4 C-17.33 3.01 -17.66 2.02 -18 1 C-11.96445452 0.30739642 -6.07593562 -0.11251733 0 0 Z " fill="#1E1C1A" transform="translate(268,37)"/>
<path d="M0 0 C0 3 0 3 -1.90625 5.015625 C-2.7621875 5.75296875 -3.618125 6.4903125 -4.5 7.25 C-5.86125 8.43142578 -5.86125 8.43142578 -7.25 9.63671875 C-8.61125 10.80654297 -8.61125 10.80654297 -10 12 C-10.78375 12.70769531 -11.5675 13.41539062 -12.375 14.14453125 C-13.07625 14.77746094 -13.7775 15.41039062 -14.5 16.0625 C-15.1290625 16.63097656 -15.758125 17.19945312 -16.40625 17.78515625 C-18 19 -18 19 -20 19 C-20 18.34 -20 17.68 -20 17 C-18.28048026 15.46148234 -16.49812503 13.99268241 -14.6875 12.5625 C-10.06108847 9.0806301 -10.06108847 9.0806301 -6 5 C-6 4.01 -6 3.02 -6 2 C-4.7934375 1.7834375 -4.7934375 1.7834375 -3.5625 1.5625 C-1.07896294 1.25864751 -1.07896294 1.25864751 0 0 Z " fill="#66605B" transform="translate(190,296)"/>
<path d="M0 0 C3.07531556 0.33246655 4.61832506 0.63104756 6.875 2.8125 C8 5 8 5 7.6875 7.25 C7.460625 7.8275 7.23375 8.405 7 9 C3.64564078 7.61198929 1.88709697 6.11371 0 3 C0 2.01 0 1.02 0 0 Z " fill="#11100F" transform="translate(342,168)"/>
<path d="M0 0 C5.46737191 1.74807129 10.75824848 3.65794081 16 6 C15.67 7.65 15.34 9.3 15 11 C14.67 10.01 14.34 9.02 14 8 C12.07188954 7.0452123 12.07188954 7.0452123 9.75 6.4375 C8.94175781 6.19257813 8.13351563 5.94765625 7.30078125 5.6953125 C6.54152344 5.46585938 5.78226563 5.23640625 5 5 C3.32636023 4.35103764 1.65538958 3.69419563 0 3 C0 2.01 0 1.02 0 0 Z " fill="#D4C9BD" transform="translate(171,241)"/>
<path d="M0 0 C2.47223763 2.47223763 2.58009771 3.96806683 3.1875 7.375 C3.36667969 8.33148438 3.54585937 9.28796875 3.73046875 10.2734375 C3.98981725 12.89699187 3.96349758 14.56062462 3 17 C2.34 17.33 1.68 17.66 1 18 C0.63835477 15.37583048 0.28538847 12.75099687 -0.0625 10.125 C-0.2181543 9.00544922 -0.2181543 9.00544922 -0.37695312 7.86328125 C-1.11328125 2.2265625 -1.11328125 2.2265625 0 0 Z " fill="#CFC4B8" transform="translate(236,189)"/>
<path d="M0 0 C0 3.93974955 -1.47789475 5.82936093 -3.5 9.1875 C-4.1496875 10.27417969 -4.799375 11.36085938 -5.46875 12.48046875 C-6.22671875 13.72763672 -6.22671875 13.72763672 -7 15 C-8.32 14.67 -9.64 14.34 -11 14 C-9.74830725 10.24492176 -7.82358723 8.75941479 -5 6 C-3.28838535 4.03326663 -1.64625433 2.02254103 0 0 Z " fill="#1C1B19" transform="translate(107,94)"/>
<path d="M0 0 C0.33 1.32 0.66 2.64 1 4 C2.32 4.33 3.64 4.66 5 5 C3.824375 5.37125 3.824375 5.37125 2.625 5.75 C-0.45455085 7.21645279 -0.67019235 7.98576932 -2 11 C-3.29470975 12.37086915 -4.62150897 13.71340837 -6 15 C-6.66 14.67 -7.32 14.34 -8 14 C-6.35 12.02 -4.7 10.04 -3 8 C-3.66 7.34 -4.32 6.68 -5 6 C-4.01 5.67 -3.02 5.34 -2 5 C-0.78130071 2.49552484 -0.78130071 2.49552484 0 0 Z " fill="#B1A79D" transform="translate(400,383)"/>
<path d="M0 0 C7.92 3.96 7.92 3.96 16 8 C15.34 8.66 14.68 9.32 14 10 C9.05 7.69 4.1 5.38 -1 3 C-0.67 2.01 -0.34 1.02 0 0 Z " fill="#D7CCC0" transform="translate(173,234)"/>
<path d="M0 0 C0.33 0 0.66 0 1 0 C4.62870159 13.6332574 4.62870159 13.6332574 3 20 C2.67 20 2.34 20 2 20 C1.49356447 17.77228658 0.9951038 15.54275924 0.5 13.3125 C0.2215625 12.07113281 -0.056875 10.82976562 -0.34375 9.55078125 C-0.89507055 6.56774329 -1.22366966 4.01394873 -1 1 C-0.67 0.67 -0.34 0.34 0 0 Z " fill="#E1D5C8" transform="translate(230,192)"/>
<path d="M0 0 C-0.04125 0.7425 -0.0825 1.485 -0.125 2.25 C0.00398134 5.08758952 0.57051222 6.58773938 2 9 C0 9 0 9 -1.625 7.5 C-2.07875 7.005 -2.5325 6.51 -3 6 C-3 6.66 -3 7.32 -3 8 C-3.66 7.67 -4.32 7.34 -5 7 C-5.40729228 4.67843403 -5.74438677 2.3431213 -6 0 C-3 -1 -3 -1 0 0 Z " fill="#AAA197" transform="translate(258,318)"/>
<path d="M0 0 C0.33 0 0.66 0 1 0 C1.24878997 2.43694274 1.47463404 4.87238389 1.6875 7.3125 C1.79674805 8.34793945 1.79674805 8.34793945 1.90820312 9.40429688 C2.33135078 14.55674183 2.33135078 14.55674183 0.51953125 16.98046875 C0.01808594 17.31691406 -0.48335938 17.65335938 -1 18 C-1.22119939 15.37549914 -1.42746669 12.75129514 -1.625 10.125 C-1.68945312 9.37863281 -1.75390625 8.63226563 -1.8203125 7.86328125 C-1.96087365 5.9129953 -1.98759849 3.95530533 -2 2 C-1.34 1.34 -0.68 0.68 0 0 Z " fill="#D2C7BB" transform="translate(279,186)"/>
<path d="M0 0 C0 3 0 3 -2 6 C-2.43738696 7.71444889 -2.80848688 9.44667784 -3.125 11.1875 C-3.29257813 12.08855469 -3.46015625 12.98960937 -3.6328125 13.91796875 C-3.75398438 14.60503906 -3.87515625 15.29210937 -4 16 C-6 15 -6 15 -7.0625 11.9375 C-6.98032294 6.76034497 -5.05776523 5.10458371 -1.56640625 1.50390625 C-1.04949219 1.00761719 -0.53257813 0.51132813 0 0 Z " fill="#CDC2B6" transform="translate(75,132)"/>
<path d="M0 0 C2.08304538 -0.05418326 4.16649768 -0.09287551 6.25 -0.125 C7.99023438 -0.15980469 7.99023438 -0.15980469 9.765625 -0.1953125 C13 0 13 0 17 2 C13.37 2 9.74 2 6 2 C6 2.66 6 3.32 6 4 C1.545 4.495 1.545 4.495 -3 5 C-3 4.67 -3 4.34 -3 4 C-1.35 4 0.3 4 2 4 C1.34 2.68 0.68 1.36 0 0 Z " fill="#AAA197" transform="translate(243,36)"/>
<path d="M0 0 C4.23431576 3.60700972 6.4692099 8.14586161 9 13 C8.01 13 7.02 13 6 13 C4.140625 10.91796875 4.140625 10.91796875 2.25 8.1875 C1.29867187 6.84751953 1.29867187 6.84751953 0.328125 5.48046875 C-0.11015625 4.66191406 -0.5484375 3.84335938 -1 3 C-0.67 2.01 -0.34 1.02 0 0 Z " fill="#D5CABE" transform="translate(197,205)"/>
<path d="M0 0 C0.33 0 0.66 0 1 0 C1 3.96 1 7.92 1 12 C-0.32 11.34 -1.64 10.68 -3 10 C-2.25 3.375 -2.25 3.375 0 0 Z " fill="#B9AFA5" transform="translate(51,153)"/>
<path d="M0 0 C2.33364352 2.92903058 4.04960836 5.88568203 5.6875 9.25 C6.34298828 10.58804688 6.34298828 10.58804688 7.01171875 11.953125 C7.33785156 12.62859375 7.66398438 13.3040625 8 14 C7.01 14 6.02 14 5 14 C2.69 9.71 0.38 5.42 -2 1 C-1.34 0.67 -0.68 0.34 0 0 Z " fill="#D4C9BD" transform="translate(204,203)"/>
<path d="M0 0 C3.83776322 1.56353316 6.34999338 3.83471431 9 7 C9.3125 9.8125 9.3125 9.8125 9 12 C5.66666667 8.66666667 2.33333333 5.33333333 -1 2 C-0.67 1.34 -0.34 0.68 0 0 Z " fill="#D7CCBF" transform="translate(186,223)"/>
<path d="M0 0 C1.98 0.495 1.98 0.495 4 1 C5 6.75 5 6.75 5 9 C4.01 9 3.02 9 2 9 C0.4375 6.1875 0.4375 6.1875 -1 3 C-0.67 2.01 -0.34 1.02 0 0 Z " fill="#E3D7CA" transform="translate(332,168)"/>
<path d="M0 0 C0.99 0.33 1.98 0.66 3 1 C3.33 1.99 3.66 2.98 4 4 C4.99 4.66 5.98 5.32 7 6 C7 6.99 7 7.98 7 9 C3.88801935 7.50163895 0.9465385 5.80066242 -2 4 C-1.34 2.68 -0.68 1.36 0 0 Z " fill="#DCD0C3" transform="translate(351,155)"/>
<path d="M0 0 C0.66 0.66 1.32 1.32 2 2 C-2.62 4.64 -7.24 7.28 -12 10 C-10.02749795 6.05499589 -9.5402549 5.37547942 -6 3.3125 C-5.29875 2.89613281 -4.5975 2.47976563 -3.875 2.05078125 C-2.60014227 1.33632973 -1.30711995 0.65355997 0 0 Z " fill="#DCD0C4" transform="translate(181,285)"/>
<path d="M0 0 C0.33 0 0.66 0 1 0 C1.33 4.95 1.66 9.9 2 15 C1.01 15 0.02 15 -1 15 C-1.33 11.04 -1.66 7.08 -2 3 C-1.34 3 -0.68 3 0 3 C0 2.01 0 1.02 0 0 Z " fill="#DCD0C4" transform="translate(254,187)"/>
<path d="M0 0 C0.99 0.33 1.98 0.66 3 1 C3 4.96 3 8.92 3 13 C2.34 13 1.68 13 1 13 C-0.10228696 8.59085217 -0.07654536 4.51617599 0 0 Z " fill="#E1D5C8" transform="translate(267,192)"/>
<path d="M0 0 C0.99 0.33 1.98 0.66 3 1 C3 1.66 3 2.32 3 3 C3.66 3 4.32 3 5 3 C5.99 4.485 5.99 4.485 7 6 C6.67 6.99 6.34 7.98 6 9 C5.608125 8.566875 5.21625 8.13375 4.8125 7.6875 C2.71680722 5.73633776 0.48410667 4.40989838 -2 3 C-1.34 2.01 -0.68 1.02 0 0 Z " fill="#E0D4C7" transform="translate(342,162)"/>
<path d="M0 0 C0.66 1.65 1.32 3.3 2 5 C-3.41538462 5.36923077 -3.41538462 5.36923077 -6.375 3.5 C-6.91125 3.005 -7.4475 2.51 -8 2 C-5.09399739 0.74335022 -3.20395416 0 0 0 Z " fill="#171615" transform="translate(315,438)"/>
<path d="M0 0 C0.33 0 0.66 0 1 0 C1.33 4.29 1.66 8.58 2 13 C1.34 13 0.68 13 0 13 C-0.33 13.66 -0.66 14.32 -1 15 C-1.22304441 13.25181409 -1.4278645 11.50129677 -1.625 9.75 C-1.74101562 8.77546875 -1.85703125 7.8009375 -1.9765625 6.796875 C-2.00112537 3.86570607 -1.5312717 2.45471036 0 0 Z " fill="#D6CBBF" transform="translate(286,188)"/>
<path d="M0 0 C-0.99 2.31 -1.98 4.62 -3 7 C-3.99 7 -4.98 7 -6 7 C-6.33 5.02 -6.66 3.04 -7 1 C-4.53721199 -0.231394 -2.7204945 -0.07159196 0 0 Z " fill="#DBCFC3" transform="translate(356,440)"/>
<path d="M0 0 C0.66 0 1.32 0 2 0 C4.3943662 7.32394366 4.3943662 7.32394366 3 11 C2.6579896 12.33113402 2.3235638 13.66426224 2 15 C0.53329887 9.77487721 -0.22577402 5.4185766 0 0 Z " fill="#A29A90" transform="translate(239,321)"/>
<path d="M0 0 C2.1519437 3.22791555 2.20086443 4.28400809 2 8 C0.35 7.67 -1.3 7.34 -3 7 C-2.625 4.0625 -2.625 4.0625 -2 1 C-1.34 0.67 -0.68 0.34 0 0 Z " fill="#DCD0C4" transform="translate(461,232)"/>
<path d="M0 0 C1.81618856 1.11903546 3.62785526 2.24541284 5.4375 3.375 C6.95150391 4.31472656 6.95150391 4.31472656 8.49609375 5.2734375 C11 7 11 7 12 9 C7.1725201 7.58707905 3.2837641 5.57025846 -1 3 C-0.67 2.01 -0.34 1.02 0 0 Z " fill="#D7CCC0" transform="translate(174,227)"/>
<path d="M0 0 C1.32 0.33 2.64 0.66 4 1 C4.33 3.31 4.66 5.62 5 8 C3.35 7.67 1.7 7.34 0 7 C0 4.69 0 2.38 0 0 Z " fill="#171614" transform="translate(343,58)"/>
<path d="M0 0 C4.83628305 0.99043705 9.47618873 1.95698846 14 4 C10.37673261 5.2077558 9.35853631 4.54311128 6 3 C6 3.66 6 4.32 6 5 C4.68 4.34 3.36 3.68 2 3 C2 2.34 2 1.68 2 1 C1.34 0.67 0.68 0.34 0 0 Z " fill="#A29990" transform="translate(168,250)"/>
<path d="M0 0 C1.99097846 2.98646769 2.94124926 5.59687262 4 9 C3.34 9 2.68 9 2 9 C1.67 9.99 1.34 10.98 1 12 C0.63762737 10.37681021 0.28534843 8.7513642 -0.0625 7.125 C-0.25972656 6.22007812 -0.45695312 5.31515625 -0.66015625 4.3828125 C-1 2 -1 2 0 0 Z " fill="#D5C9BD" transform="translate(327,180)"/>
<path d="M0 0 C0.99 0.33 1.98 0.66 3 1 C2.65120368 4.25543229 1.97866739 5.01873107 -0.5625 7.25 C-1.7690625 8.11625 -1.7690625 8.11625 -3 9 C-2.01 6.03 -1.02 3.06 0 0 Z " fill="#191817" transform="translate(93,151)"/>
<path d="M0 0 C0.99 0.33 1.98 0.66 3 1 C2.01 3.97 1.02 6.94 0 10 C-0.66 10 -1.32 10 -2 10 C-1.85950482 8.52031676 -1.71245174 7.04125484 -1.5625 5.5625 C-1.48128906 4.73878906 -1.40007812 3.91507812 -1.31640625 3.06640625 C-1 1 -1 1 0 0 Z " fill="#CAC0B4" transform="translate(216,316)"/>
<path d="M0 0 C0.66 0 1.32 0 2 0 C1.8125 3.3125 1.8125 3.3125 1 7 C-1.5625 8.9375 -1.5625 8.9375 -4 10 C-2.8905928 6.51329166 -1.73662334 3.22515763 0 0 Z " fill="#D9CEC1" transform="translate(210,314)"/>
<path d="M0 0 C-3.82517513 2.39073445 -7.59665524 2.55966552 -12 3 C-12 2.01 -12 1.02 -12 0 C-7.66726186 -0.92844389 -4.33273814 -0.92844389 0 0 Z " fill="#C8BDB2" transform="translate(182,273)"/>
<path d="M0 0 C4.75 1.875 4.75 1.875 7 3 C7 3.99 7 4.98 7 6 C4.36 5.34 1.72 4.68 -1 4 C-0.67 2.68 -0.34 1.36 0 0 Z " fill="#E1D5C8" transform="translate(354,151)"/>
<path d="M0 0 C-0.3810518 2.76262553 -0.83597132 3.84143894 -2.875 5.8125 C-3.57625 6.204375 -4.2775 6.59625 -5 7 C-5.99 6.67 -6.98 6.34 -8 6 C-7.0479279 4.99403703 -6.08812654 3.99538437 -5.125 3 C-4.59132813 2.443125 -4.05765625 1.88625 -3.5078125 1.3125 C-2 0 -2 0 0 0 Z " fill="#E0D4C7" transform="translate(337,444)"/>
<path d="M0 0 C-0.33 0.99 -0.66 1.98 -1 3 C-1.66 3 -2.32 3 -3 3 C-2.67 5.31 -2.34 7.62 -2 10 C-4 7 -4 7 -4 3 C-5.32 2.34 -6.64 1.68 -8 1 C-2.25 -1.125 -2.25 -1.125 0 0 Z " fill="#2A2825" transform="translate(242,318)"/>
<path d="M0 0 C0.66 0.99 1.32 1.98 2 3 C0.02 4.98 -1.96 6.96 -4 9 C-4.99 8.67 -5.98 8.34 -7 8 C-4.69 5.36 -2.38 2.72 0 0 Z " fill="#D6CBBF" transform="translate(194,301)"/>
<path d="M0 0 C0.639375 0.66 1.27875 1.32 1.9375 2 C3.64082319 4.11602431 3.64082319 4.11602431 5 4 C5 5.98 5 7.96 5 10 C4.01 10 3.02 10 2 10 C1.34 6.7 0.68 3.4 0 0 Z " fill="#544F4B" transform="translate(451,191)"/>
<path d="M0 0 C0.33 0 0.66 0 1 0 C1.66 3.63 2.32 7.26 3 11 C2.34 11 1.68 11 1 11 C0.67 11.66 0.34 12.32 0 13 C-0.19658808 11.58456585 -0.38187546 10.16755969 -0.5625 8.75 C-0.66691406 7.96109375 -0.77132813 7.1721875 -0.87890625 6.359375 C-1.00027349 3.99467126 -0.69633257 2.2488963 0 0 Z " fill="#D7CBBF" transform="translate(314,184)"/>
<path d="M0 0 C1.1200071 3.36002129 0.8208325 4.63458676 0 8 C-0.185625 8.763125 -0.37125 9.52625 -0.5625 10.3125 C-0.706875 10.869375 -0.85125 11.42625 -1 12 C-2.8454602 8.88578592 -3.46369062 6.61678684 -3 3 C-1.5 1.1875 -1.5 1.1875 0 0 Z " fill="#B2A89E" transform="translate(65,143)"/>
<path d="M0 0 C0.66 0 1.32 0 2 0 C0.14285714 7.57142857 0.14285714 7.57142857 -3 10 C-4 7 -4 7 -3.22265625 5.17578125 C-2.1484375 3.45052083 -1.07421875 1.72526042 0 0 Z " fill="#DACFC2" transform="translate(204,313)"/>
<path d="M0 0 C0.66 0.66 1.32 1.32 2 2 C0.35 4.31 -1.3 6.62 -3 9 C-3.99 8.34 -4.98 7.68 -6 7 C-4.02 4.69 -2.04 2.38 0 0 Z " fill="#D1C6BA" transform="translate(198,306)"/>
<path d="M0 0 C0.66 0.33 1.32 0.66 2 1 C0.63016497 4.16115776 0.0109362 4.9927092 -3 7 C-3.99 6.67 -4.98 6.34 -6 6 C-4 4 -2 2 0 0 Z " fill="#E0D4C7" transform="translate(182,291)"/>
<path d="M0 0 C0.99 0 1.98 0 3 0 C3 3.63 3 7.26 3 11 C2.34 10.67 1.68 10.34 1 10 C0.5859375 7.71484375 0.5859375 7.71484375 0.375 4.9375 C0.30023438 4.01839844 0.22546875 3.09929687 0.1484375 2.15234375 C0.09945312 1.44207031 0.05046875 0.73179687 0 0 Z " fill="#E2D6C9" transform="translate(249,194)"/>
<path d="M0 0 C3.23585033 3.23585033 3.98945574 7.62097487 5 12 C2.60479951 10.04029051 1.9756707 8.91890234 1.0625 5.875 C0.711875 4.92625 0.36125 3.9775 0 3 C-2.03243548 2.03122943 -2.03243548 2.03122943 -4 2 C-2.68 1.34 -1.36 0.68 0 0 Z " fill="#423E3A" transform="translate(330,167)"/>
<path d="M0 0 C-1.97420135 2.52259061 -2.96745642 2.9929808 -6.1875 3.6875 C-7.5796875 3.8421875 -7.5796875 3.8421875 -9 4 C-9 3.01 -9 2.02 -9 1 C-6.04335481 -0.4783226 -3.25770263 -0.06032783 0 0 Z " fill="#3D3936" transform="translate(203,51)"/>
<path d="M0 0 C3.43595166 1.52708963 6.11912454 3.59927045 9 6 C4.2482602 5.56802365 2.07999946 4.67230705 -1 1 C-0.67 0.67 -0.34 0.34 0 0 Z " fill="#D8CDC0" transform="translate(177,225)"/>
<path d="M0 0 C1.64826111 2.96687001 2.44271087 5.65626525 3 9 C2.01 9.33 1.02 9.66 0 10 C-0.66 7.69 -1.32 5.38 -2 3 C-1.34 3 -0.68 3 0 3 C0 2.01 0 1.02 0 0 Z " fill="#D3C8BC" transform="translate(223,204)"/>
<path d="M0 0 C0.33 0.66 0.66 1.32 1 2 C1.66 2 2.32 2 3 2 C3.33 4.64 3.66 7.28 4 10 C3.01 10.33 2.02 10.66 1 11 C0.67 7.37 0.34 3.74 0 0 Z " fill="#E1D5C8" transform="translate(291,191)"/>
<path d="M0 0 C0.33 0 0.66 0 1 0 C1.33 3.3 1.66 6.6 2 10 C1.34 10 0.68 10 0 10 C-0.33 10.66 -0.66 11.32 -1 12 C-1.08159574 7.83861737 -0.98248524 4.0527516 0 0 Z " fill="#CDC2B6" transform="translate(244,191)"/>
<path d="M0 0 C3.1875 0.3125 3.1875 0.3125 6 1 C6.33 1.99 6.66 2.98 7 4 C3.7 3.67 0.4 3.34 -3 3 C-2.01 2.01 -1.02 1.02 0 0 Z " fill="#CEC3B7" transform="translate(171,258)"/>
<path d="M0 0 C2.9375 0.8125 2.9375 0.8125 6 2 C6.33 2.99 6.66 3.98 7 5 C3.7 4.34 0.4 3.68 -3 3 C-2.01 2.67 -1.02 2.34 0 2 C0 1.34 0 0.68 0 0 Z " fill="#D9CDC1" transform="translate(164,249)"/>
<path d="M0 0 C0.99 0 1.98 0 3 0 C2.74438677 2.3431213 2.40729228 4.67843403 2 7 C1.01 7.495 1.01 7.495 0 8 C0 5.36 0 2.72 0 0 Z " fill="#1C1A19" transform="translate(456,233)"/>
<path d="M0 0 C0.33 0.66 0.66 1.32 1 2 C1.99 2.33 2.98 2.66 4 3 C4 3.66 4 4.32 4 5 C1.69 5 -0.62 5 -3 5 C-2.625 3.0625 -2.625 3.0625 -2 1 C-1.34 0.67 -0.68 0.34 0 0 Z " fill="#D7CBBF" transform="translate(359,145)"/>
<path d="M0 0 C0.66 0 1.32 0 2 0 C2.9765625 6.0546875 2.9765625 6.0546875 3 8 C2.34 8.66 1.68 9.32 1 10 C0.67 6.7 0.34 3.4 0 0 Z " fill="#DCD0C3" transform="translate(236,321)"/>
<path d="M0 0 C0.66 0.33 1.32 0.66 2 1 C2 3.31 2 5.62 2 8 C1.01 8.33 0.02 8.66 -1 9 C-0.67 6.03 -0.34 3.06 0 0 Z " fill="#DBD0C3" transform="translate(217,323)"/>
<path d="M0 0 C0.33 0.99 0.66 1.98 1 3 C1.66 3.33 2.32 3.66 3 4 C0.03 6.475 0.03 6.475 -3 9 C-3 6 -3 6 -1 4 C-0.3574765 1.93125966 -0.3574765 1.93125966 0 0 Z " fill="#8B847C" transform="translate(185,315)"/>
<path d="M0 0 C2.64 0.66 5.28 1.32 8 2 C7.67 3.65 7.34 5.3 7 7 C6.67 6.01 6.34 5.02 6 4 C2.99152582 2.77479736 2.99152582 2.77479736 0 2 C0 1.34 0 0.68 0 0 Z " fill="#DED2C5" transform="translate(179,245)"/>
<path d="M0 0 C2.11007147 1.74310252 2.95559826 2.86337925 3.8125 5.5 C4 8 4 8 2 11 C0.80712589 7.12315913 0 4.08378077 0 0 Z " fill="#CABFB3" transform="translate(215,205)"/>
<path d="M0 0 C0.33 0 0.66 0 1 0 C1.33 3.63 1.66 7.26 2 11 C1.34 10.67 0.68 10.34 0 10 C-0.77811718 6.18015204 -1.24386556 3.73159669 0 0 Z " fill="#E4D8CB" transform="translate(226,190)"/>
<path d="M0 0 C2.35953094 2.35953094 2.49141413 3.77895617 3 7 C2.01 7.33 1.02 7.66 0 8 C-0.38063221 5.6739143 -0.71269945 3.33944736 -1 1 C-0.67 0.67 -0.34 0.34 0 0 Z " fill="#DBD0C3" transform="translate(320,182)"/>
<path d="M0 0 C3 1 3 1 5 4 C4.67 4.99 4.34 5.98 4 7 C3.34 6.34 2.68 5.68 2 5 C1.34 5 0.68 5 0 5 C-0.5625 3.0625 -0.5625 3.0625 -1 1 C-0.67 0.67 -0.34 0.34 0 0 Z " fill="#A39B91" transform="translate(333,178)"/>
<path d="M0 0 C0 0.66 0 1.32 0 2 C-1.95927063 3.7143618 -3.95880212 5.38405168 -6 7 C-6.66 6.34 -7.32 5.68 -8 5 C-2.25 0 -2.25 0 0 0 Z " fill="#1F1D1B" transform="translate(353,153)"/>
<path d="M0 0 C0.99 0.33 1.98 0.66 3 1 C3.8125 2.875 3.8125 2.875 4 5 C3.01 6.485 3.01 6.485 2 8 C0 6 0 6 -0.125 2.875 C-0.08375 1.92625 -0.0425 0.9775 0 0 Z " fill="#9E958C" transform="translate(347,60)"/>
<path d="M0 0 C2.61580479 0.3269756 4.64078137 0.82039068 7 2 C7 2.66 7 3.32 7 4 C2.545 3.01 2.545 3.01 -2 2 C-1.34 1.34 -0.68 0.68 0 0 Z " fill="#E6DACD" transform="translate(164,246)"/>
<path d="M0 0 C1.98362069 2.91708924 1.9876191 4.12380904 1.625 7.75 C1.41875 8.8225 1.2125 9.895 1 11 C0.67 11 0.34 11 0 11 C-1.125 3.375 -1.125 3.375 0 0 Z " fill="#CCC2B6" transform="translate(232,201)"/>
<path d="M0 0 C0.66 0.33 1.32 0.66 2 1 C2.625 3.5625 2.625 3.5625 3 6 C2.34 6 1.68 6 1 6 C1 7.32 1 8.64 1 10 C0.34 9.67 -0.32 9.34 -1 9 C-0.67 6.03 -0.34 3.06 0 0 Z " fill="#DED2C6" transform="translate(310,189)"/>
<path d="M0 0 C3.63 0.33 7.26 0.66 11 1 C11 1.33 11 1.66 11 2 C7.37 2.33 3.74 2.66 0 3 C0 2.01 0 1.02 0 0 Z " fill="#746E68" transform="translate(274,33)"/>
<path d="M0 0 C0 0.99 0 1.98 0 3 C-1 4 -1 4 -4.0625 4.0625 C-5.5165625 4.0315625 -5.5165625 4.0315625 -7 4 C-6 2 -6 2 -2.9375 0.875 C-1.4834375 0.441875 -1.4834375 0.441875 0 0 Z " fill="#BAB0A6" transform="translate(317,445)"/>
</svg>
