<svg id="visual" viewBox="0 0 900 600" width="900" height="600" xmlns="http://www.w3.org/2000/svg" xmlns:xlink="http://www.w3.org/1999/xlink" version="1.1"><rect x="0" y="0" width="900" height="600" fill="#ffddd2"></rect><defs><linearGradient id="grad1_0" x1="33.3%" y1="0%" x2="100%" y2="100%"><stop offset="20%" stop-color="#7c73e6" stop-opacity="1"></stop><stop offset="80%" stop-color="#7c73e6" stop-opacity="1"></stop></linearGradient></defs><defs><linearGradient id="grad1_1" x1="33.3%" y1="0%" x2="100%" y2="100%"><stop offset="20%" stop-color="#7c73e6" stop-opacity="1"></stop><stop offset="80%" stop-color="#f296bd" stop-opacity="1"></stop></linearGradient></defs><defs><linearGradient id="grad1_2" x1="33.3%" y1="0%" x2="100%" y2="100%"><stop offset="20%" stop-color="#ffddd2" stop-opacity="1"></stop><stop offset="80%" stop-color="#f296bd" stop-opacity="1"></stop></linearGradient></defs><defs><linearGradient id="grad2_0" x1="0%" y1="0%" x2="66.7%" y2="100%"><stop offset="20%" stop-color="#7c73e6" stop-opacity="1"></stop><stop offset="80%" stop-color="#7c73e6" stop-opacity="1"></stop></linearGradient></defs><defs><linearGradient id="grad2_1" x1="0%" y1="0%" x2="66.7%" y2="100%"><stop offset="20%" stop-color="#f296bd" stop-opacity="1"></stop><stop offset="80%" stop-color="#7c73e6" stop-opacity="1"></stop></linearGradient></defs><defs><linearGradient id="grad2_2" x1="0%" y1="0%" x2="66.7%" y2="100%"><stop offset="20%" stop-color="#f296bd" stop-opacity="1"></stop><stop offset="80%" stop-color="#ffddd2" stop-opacity="1"></stop></linearGradient></defs><g transform="translate(900, 0)"><path d="M0 432.7C-46.8 392.3 -93.6 351.9 -133.9 323.4C-174.3 294.8 -208.3 278.1 -256.7 256.7C-305.1 235.3 -368 209.1 -399.7 165.6C-431.5 122 -432.1 61 -432.7 0L0 0Z" fill="#ffb9bc"></path><path d="M0 288.4C-31.2 261.5 -62.4 234.6 -89.3 215.6C-116.2 196.5 -138.8 185.4 -171.1 171.1C-203.4 156.8 -245.3 139.4 -266.5 110.4C-287.6 81.3 -288 40.7 -288.4 0L0 0Z" fill="#cd7dcf"></path><path d="M0 144.2C-15.6 130.8 -31.2 117.3 -44.6 107.8C-58.1 98.3 -69.4 92.7 -85.6 85.6C-101.7 78.4 -122.7 69.7 -133.2 55.2C-143.8 40.7 -144 20.3 -144.2 0L0 0Z" fill="#7c73e6"></path></g><g transform="translate(0, 600)"><path d="M0 -432.7C47.7 -408.6 95.3 -384.6 152.7 -368.6C210.1 -352.7 277.1 -344.9 305.9 -305.9C334.7 -267 325.2 -197 340 -140.8C354.7 -84.7 393.7 -42.3 432.7 0L0 0Z" fill="#ffb9bc"></path><path d="M0 -288.4C31.8 -272.4 63.5 -256.4 101.8 -245.8C140 -235.1 184.8 -229.9 204 -204C223.2 -178 216.8 -131.3 226.7 -93.9C236.5 -56.4 262.5 -28.2 288.4 0L0 0Z" fill="#cd7dcf"></path><path d="M0 -144.2C15.9 -136.2 31.8 -128.2 50.9 -122.9C70 -117.6 92.4 -115 102 -102C111.6 -89 108.4 -65.7 113.3 -46.9C118.2 -28.2 131.2 -14.1 144.2 0L0 0Z" fill="#7c73e6"></path></g></svg>