<svg id="visual" viewBox="0 0 900 600" width="900" height="600" xmlns="http://www.w3.org/2000/svg" xmlns:xlink="http://www.w3.org/1999/xlink" version="1.1"><rect x="0" y="0" width="900" height="600" fill="#c4c1e0"></rect><path d="M0 90L18.8 100.3C37.7 110.7 75.3 131.3 112.8 137.2C150.3 143 187.7 134 225.2 134.3C262.7 134.7 300.3 144.3 337.8 148C375.3 151.7 412.7 149.3 450.2 145.7C487.7 142 525.3 137 562.8 132.2C600.3 127.3 637.7 122.7 675.2 124C712.7 125.3 750.3 132.7 787.8 133.7C825.3 134.7 862.7 129.3 881.3 126.7L900 124L900 0L881.3 0C862.7 0 825.3 0 787.8 0C750.3 0 712.7 0 675.2 0C637.7 0 600.3 0 562.8 0C525.3 0 487.7 0 450.2 0C412.7 0 375.3 0 337.8 0C300.3 0 262.7 0 225.2 0C187.7 0 150.3 0 112.8 0C75.3 0 37.7 0 18.8 0L0 0Z" fill="#ffc6b2"></path><path d="M0 105L18.8 102C37.7 99 75.3 93 112.8 90C150.3 87 187.7 87 225.2 86.8C262.7 86.7 300.3 86.3 337.8 93.8C375.3 101.3 412.7 116.7 450.2 120C487.7 123.3 525.3 114.7 562.8 114.5C600.3 114.3 637.7 122.7 675.2 119.2C712.7 115.7 750.3 100.3 787.8 98.5C825.3 96.7 862.7 108.3 881.3 114.2L900 120L900 0L881.3 0C862.7 0 825.3 0 787.8 0C750.3 0 712.7 0 675.2 0C637.7 0 600.3 0 562.8 0C525.3 0 487.7 0 450.2 0C412.7 0 375.3 0 337.8 0C300.3 0 262.7 0 225.2 0C187.7 0 150.3 0 112.8 0C75.3 0 37.7 0 18.8 0L0 0Z" fill="#ffcebd"></path><path d="M0 65L18.8 72.3C37.7 79.7 75.3 94.3 112.8 101.5C150.3 108.7 187.7 108.3 225.2 108.8C262.7 109.3 300.3 110.7 337.8 109C375.3 107.3 412.7 102.7 450.2 94.5C487.7 86.3 525.3 74.7 562.8 75.5C600.3 76.3 637.7 89.7 675.2 96C712.7 102.3 750.3 101.7 787.8 98C825.3 94.3 862.7 87.7 881.3 84.3L900 81L900 0L881.3 0C862.7 0 825.3 0 787.8 0C750.3 0 712.7 0 675.2 0C637.7 0 600.3 0 562.8 0C525.3 0 487.7 0 450.2 0C412.7 0 375.3 0 337.8 0C300.3 0 262.7 0 225.2 0C187.7 0 150.3 0 112.8 0C75.3 0 37.7 0 18.8 0L0 0Z" fill="#ffd5c7"></path><path d="M0 76L18.8 72.8C37.7 69.7 75.3 63.3 112.8 60.7C150.3 58 187.7 59 225.2 63.8C262.7 68.7 300.3 77.3 337.8 77.8C375.3 78.3 412.7 70.7 450.2 66.8C487.7 63 525.3 63 562.8 67.3C600.3 71.7 637.7 80.3 675.2 78.5C712.7 76.7 750.3 64.3 787.8 59.2C825.3 54 862.7 56 881.3 57L900 58L900 0L881.3 0C862.7 0 825.3 0 787.8 0C750.3 0 712.7 0 675.2 0C637.7 0 600.3 0 562.8 0C525.3 0 487.7 0 450.2 0C412.7 0 375.3 0 337.8 0C300.3 0 262.7 0 225.2 0C187.7 0 150.3 0 112.8 0C75.3 0 37.7 0 18.8 0L0 0Z" fill="#ffddd2"></path><path d="M0 39L18.8 43C37.7 47 75.3 55 112.8 54.5C150.3 54 187.7 45 225.2 41C262.7 37 300.3 38 337.8 42.8C375.3 47.7 412.7 56.3 450.2 61.2C487.7 66 525.3 67 562.8 62.5C600.3 58 637.7 48 675.2 48.5C712.7 49 750.3 60 787.8 59.8C825.3 59.7 862.7 48.3 881.3 42.7L900 37L900 0L881.3 0C862.7 0 825.3 0 787.8 0C750.3 0 712.7 0 675.2 0C637.7 0 600.3 0 562.8 0C525.3 0 487.7 0 450.2 0C412.7 0 375.3 0 337.8 0C300.3 0 262.7 0 225.2 0C187.7 0 150.3 0 112.8 0C75.3 0 37.7 0 18.8 0L0 0Z" fill="#ffe1d7"></path><path d="M0 45L18.8 43.8C37.7 42.7 75.3 40.3 112.8 39C150.3 37.7 187.7 37.3 225.2 40C262.7 42.7 300.3 48.3 337.8 49.8C375.3 51.3 412.7 48.7 450.2 45.8C487.7 43 525.3 40 562.8 41.5C600.3 43 637.7 49 675.2 51.7C712.7 54.3 750.3 53.7 787.8 53.2C825.3 52.7 862.7 52.3 881.3 52.2L900 52L900 0L881.3 0C862.7 0 825.3 0 787.8 0C750.3 0 712.7 0 675.2 0C637.7 0 600.3 0 562.8 0C525.3 0 487.7 0 450.2 0C412.7 0 375.3 0 337.8 0C300.3 0 262.7 0 225.2 0C187.7 0 150.3 0 112.8 0C75.3 0 37.7 0 18.8 0L0 0Z" fill="#ffe4dc"></path><path d="M0 14L18.8 16.5C37.7 19 75.3 24 112.8 24.3C150.3 24.7 187.7 20.3 225.2 19.8C262.7 19.3 300.3 22.7 337.8 22.5C375.3 22.3 412.7 18.7 450.2 15.8C487.7 13 525.3 11 562.8 13.5C600.3 16 637.7 23 675.2 23.5C712.7 24 750.3 18 787.8 16C825.3 14 862.7 16 881.3 17L900 18L900 0L881.3 0C862.7 0 825.3 0 787.8 0C750.3 0 712.7 0 675.2 0C637.7 0 600.3 0 562.8 0C525.3 0 487.7 0 450.2 0C412.7 0 375.3 0 337.8 0C300.3 0 262.7 0 225.2 0C187.7 0 150.3 0 112.8 0C75.3 0 37.7 0 18.8 0L0 0Z" fill="#ffe8e1"></path></svg>