<svg id="visual" viewBox="0 0 900 600" width="900" height="600" xmlns="http://www.w3.org/2000/svg" xmlns:xlink="http://www.w3.org/1999/xlink" version="1.1"><rect x="0" y="0" width="900" height="600" fill="#ffddd2"></rect><path d="M0 427L21.5 419.3C43 411.7 86 396.3 128.8 398.7C171.7 401 214.3 421 257.2 419.5C300 418 343 395 385.8 385.3C428.7 375.7 471.3 379.3 514.2 388.7C557 398 600 413 642.8 414.3C685.7 415.7 728.3 403.3 771.2 394.2C814 385 857 379 878.5 376L900 373L900 601L878.5 601C857 601 814 601 771.2 601C728.3 601 685.7 601 642.8 601C600 601 557 601 514.2 601C471.3 601 428.7 601 385.8 601C343 601 300 601 257.2 601C214.3 601 171.7 601 128.8 601C86 601 43 601 21.5 601L0 601Z" fill="#c4c1e0"></path><path d="M0 436L21.5 435.3C43 434.7 86 433.3 128.8 431.7C171.7 430 214.3 428 257.2 422.2C300 416.3 343 406.7 385.8 411C428.7 415.3 471.3 433.7 514.2 441C557 448.3 600 444.7 642.8 442.8C685.7 441 728.3 441 771.2 445.7C814 450.3 857 459.7 878.5 464.3L900 469L900 601L878.5 601C857 601 814 601 771.2 601C728.3 601 685.7 601 642.8 601C600 601 557 601 514.2 601C471.3 601 428.7 601 385.8 601C343 601 300 601 257.2 601C214.3 601 171.7 601 128.8 601C86 601 43 601 21.5 601L0 601Z" fill="#b3ade2"></path><path d="M0 486L21.5 478.5C43 471 86 456 128.8 448.8C171.7 441.7 214.3 442.3 257.2 451C300 459.7 343 476.3 385.8 486C428.7 495.7 471.3 498.3 514.2 501.3C557 504.3 600 507.7 642.8 501.2C685.7 494.7 728.3 478.3 771.2 476.5C814 474.7 857 487.3 878.5 493.7L900 500L900 601L878.5 601C857 601 814 601 771.2 601C728.3 601 685.7 601 642.8 601C600 601 557 601 514.2 601C471.3 601 428.7 601 385.8 601C343 601 300 601 257.2 601C214.3 601 171.7 601 128.8 601C86 601 43 601 21.5 601L0 601Z" fill="#a19ae4"></path><path d="M0 496L21.5 494.5C43 493 86 490 128.8 491.2C171.7 492.3 214.3 497.7 257.2 497.3C300 497 343 491 385.8 496C428.7 501 471.3 517 514.2 525.2C557 533.3 600 533.7 642.8 525C685.7 516.3 728.3 498.7 771.2 494.2C814 489.7 857 498.3 878.5 502.7L900 507L900 601L878.5 601C857 601 814 601 771.2 601C728.3 601 685.7 601 642.8 601C600 601 557 601 514.2 601C471.3 601 428.7 601 385.8 601C343 601 300 601 257.2 601C214.3 601 171.7 601 128.8 601C86 601 43 601 21.5 601L0 601Z" fill="#8f87e5"></path><path d="M0 544L21.5 548C43 552 86 560 128.8 559C171.7 558 214.3 548 257.2 545.5C300 543 343 548 385.8 550.2C428.7 552.3 471.3 551.7 514.2 549.5C557 547.3 600 543.7 642.8 544.7C685.7 545.7 728.3 551.3 771.2 555.2C814 559 857 561 878.5 562L900 563L900 601L878.5 601C857 601 814 601 771.2 601C728.3 601 685.7 601 642.8 601C600 601 557 601 514.2 601C471.3 601 428.7 601 385.8 601C343 601 300 601 257.2 601C214.3 601 171.7 601 128.8 601C86 601 43 601 21.5 601L0 601Z" fill="#7c73e6"></path></svg>