<svg id="visual" viewBox="0 0 900 600" width="900" height="600" xmlns="http://www.w3.org/2000/svg" xmlns:xlink="http://www.w3.org/1999/xlink" version="1.1"><rect x="0" y="0" width="900" height="600" fill="#c4c1e0"></rect><path d="M0 162L18.8 166.2C37.7 170.3 75.3 178.7 112.8 180.2C150.3 181.7 187.7 176.3 225.2 173.3C262.7 170.3 300.3 169.7 337.8 175.3C375.3 181 412.7 193 450.2 197.2C487.7 201.3 525.3 197.7 562.8 197.7C600.3 197.7 637.7 201.3 675.2 197.8C712.7 194.3 750.3 183.7 787.8 176.7C825.3 169.7 862.7 166.3 881.3 164.7L900 163L900 0L881.3 0C862.7 0 825.3 0 787.8 0C750.3 0 712.7 0 675.2 0C637.7 0 600.3 0 562.8 0C525.3 0 487.7 0 450.2 0C412.7 0 375.3 0 337.8 0C300.3 0 262.7 0 225.2 0C187.7 0 150.3 0 112.8 0C75.3 0 37.7 0 18.8 0L0 0Z" fill="#ffc6b2"></path><path d="M0 171L18.8 170C37.7 169 75.3 167 112.8 166.7C150.3 166.3 187.7 167.7 225.2 165.8C262.7 164 300.3 159 337.8 156.5C375.3 154 412.7 154 450.2 156.7C487.7 159.3 525.3 164.7 562.8 163C600.3 161.3 637.7 152.7 675.2 151.5C712.7 150.3 750.3 156.7 787.8 156.5C825.3 156.3 862.7 149.7 881.3 146.3L900 143L900 0L881.3 0C862.7 0 825.3 0 787.8 0C750.3 0 712.7 0 675.2 0C637.7 0 600.3 0 562.8 0C525.3 0 487.7 0 450.2 0C412.7 0 375.3 0 337.8 0C300.3 0 262.7 0 225.2 0C187.7 0 150.3 0 112.8 0C75.3 0 37.7 0 18.8 0L0 0Z" fill="#ffcebd"></path><path d="M0 150L18.8 146.3C37.7 142.7 75.3 135.3 112.8 132.8C150.3 130.3 187.7 132.7 225.2 135.2C262.7 137.7 300.3 140.3 337.8 140.8C375.3 141.3 412.7 139.7 450.2 137.2C487.7 134.7 525.3 131.3 562.8 133.2C600.3 135 637.7 142 675.2 141.8C712.7 141.7 750.3 134.3 787.8 133.3C825.3 132.3 862.7 137.7 881.3 140.3L900 143L900 0L881.3 0C862.7 0 825.3 0 787.8 0C750.3 0 712.7 0 675.2 0C637.7 0 600.3 0 562.8 0C525.3 0 487.7 0 450.2 0C412.7 0 375.3 0 337.8 0C300.3 0 262.7 0 225.2 0C187.7 0 150.3 0 112.8 0C75.3 0 37.7 0 18.8 0L0 0Z" fill="#ffd5c7"></path><path d="M0 114L18.8 113.7C37.7 113.3 75.3 112.7 112.8 109.2C150.3 105.7 187.7 99.3 225.2 98C262.7 96.7 300.3 100.3 337.8 101.5C375.3 102.7 412.7 101.3 450.2 99.3C487.7 97.3 525.3 94.7 562.8 93.7C600.3 92.7 637.7 93.3 675.2 97.7C712.7 102 750.3 110 787.8 112C825.3 114 862.7 110 881.3 108L900 106L900 0L881.3 0C862.7 0 825.3 0 787.8 0C750.3 0 712.7 0 675.2 0C637.7 0 600.3 0 562.8 0C525.3 0 487.7 0 450.2 0C412.7 0 375.3 0 337.8 0C300.3 0 262.7 0 225.2 0C187.7 0 150.3 0 112.8 0C75.3 0 37.7 0 18.8 0L0 0Z" fill="#ffddd2"></path><path d="M0 77L18.8 75.8C37.7 74.7 75.3 72.3 112.8 71.8C150.3 71.3 187.7 72.7 225.2 73C262.7 73.3 300.3 72.7 337.8 75C375.3 77.3 412.7 82.7 450.2 83.8C487.7 85 525.3 82 562.8 79.3C600.3 76.7 637.7 74.3 675.2 73.3C712.7 72.3 750.3 72.7 787.8 75.7C825.3 78.7 862.7 84.3 881.3 87.2L900 90L900 0L881.3 0C862.7 0 825.3 0 787.8 0C750.3 0 712.7 0 675.2 0C637.7 0 600.3 0 562.8 0C525.3 0 487.7 0 450.2 0C412.7 0 375.3 0 337.8 0C300.3 0 262.7 0 225.2 0C187.7 0 150.3 0 112.8 0C75.3 0 37.7 0 18.8 0L0 0Z" fill="#ffe1d7"></path><path d="M0 59L18.8 57.5C37.7 56 75.3 53 112.8 51.3C150.3 49.7 187.7 49.3 225.2 48.8C262.7 48.3 300.3 47.7 337.8 50.8C375.3 54 412.7 61 450.2 60.8C487.7 60.7 525.3 53.3 562.8 51.7C600.3 50 637.7 54 675.2 56.8C712.7 59.7 750.3 61.3 787.8 58.5C825.3 55.7 862.7 48.3 881.3 44.7L900 41L900 0L881.3 0C862.7 0 825.3 0 787.8 0C750.3 0 712.7 0 675.2 0C637.7 0 600.3 0 562.8 0C525.3 0 487.7 0 450.2 0C412.7 0 375.3 0 337.8 0C300.3 0 262.7 0 225.2 0C187.7 0 150.3 0 112.8 0C75.3 0 37.7 0 18.8 0L0 0Z" fill="#ffe4dc"></path><path d="M0 25L18.8 27.3C37.7 29.7 75.3 34.3 112.8 35.2C150.3 36 187.7 33 225.2 31C262.7 29 300.3 28 337.8 29.5C375.3 31 412.7 35 450.2 34.7C487.7 34.3 525.3 29.7 562.8 29.3C600.3 29 637.7 33 675.2 34.2C712.7 35.3 750.3 33.7 787.8 31.8C825.3 30 862.7 28 881.3 27L900 26L900 0L881.3 0C862.7 0 825.3 0 787.8 0C750.3 0 712.7 0 675.2 0C637.7 0 600.3 0 562.8 0C525.3 0 487.7 0 450.2 0C412.7 0 375.3 0 337.8 0C300.3 0 262.7 0 225.2 0C187.7 0 150.3 0 112.8 0C75.3 0 37.7 0 18.8 0L0 0Z" fill="#ffe8e1"></path></svg>