<svg id="visual" viewBox="0 0 900 600" width="900" height="600" xmlns="http://www.w3.org/2000/svg" xmlns:xlink="http://www.w3.org/1999/xlink" version="1.1"><rect x="0" y="0" width="900" height="600" fill="#ffddd2"></rect><path d="M601 600L572.3 587.5C543.7 575 486.3 550 466.7 525C447 500 465 475 493.8 450C522.7 425 562.3 400 578 375C593.7 350 585.3 325 572.8 300C560.3 275 543.7 250 527.3 225C511 200 495 175 507.2 150C519.3 125 559.7 100 584.5 75C609.3 50 618.7 25 623.3 12.5L628 0L900 0L900 12.5C900 25 900 50 900 75C900 100 900 125 900 150C900 175 900 200 900 225C900 250 900 275 900 300C900 325 900 350 900 375C900 400 900 425 900 450C900 475 900 500 900 525C900 550 900 575 900 587.5L900 600Z" fill="#ffc6b2"></path><path d="M545 600L549.8 587.5C554.7 575 564.3 550 560.8 525C557.3 500 540.7 475 538.7 450C536.7 425 549.3 400 555.7 375C562 350 562 325 576.7 300C591.3 275 620.7 250 609 225C597.3 200 544.7 175 535.7 150C526.7 125 561.3 100 566 75C570.7 50 545.3 25 532.7 12.5L520 0L900 0L900 12.5C900 25 900 50 900 75C900 100 900 125 900 150C900 175 900 200 900 225C900 250 900 275 900 300C900 325 900 350 900 375C900 400 900 425 900 450C900 475 900 500 900 525C900 550 900 575 900 587.5L900 600Z" fill="#ffd9cd"></path><path d="M578 600L575.5 587.5C573 575 568 550 574.8 525C581.7 500 600.3 475 609 450C617.7 425 616.3 400 630.7 375C645 350 675 325 674.3 300C673.7 275 642.3 250 619.8 225C597.3 200 583.7 175 583.5 150C583.3 125 596.7 100 607.3 75C618 50 626 25 630 12.5L634 0L900 0L900 12.5C900 25 900 50 900 75C900 100 900 125 900 150C900 175 900 200 900 225C900 250 900 275 900 300C900 325 900 350 900 375C900 400 900 425 900 450C900 475 900 500 900 525C900 550 900 575 900 587.5L900 600Z" fill="#ffe4dc"></path><path d="M752 600L747.2 587.5C742.3 575 732.7 550 709.2 525C685.7 500 648.3 475 646.7 450C645 425 679 400 687.7 375C696.3 350 679.7 325 667.5 300C655.3 275 647.7 250 661.8 225C676 200 712 175 719.2 150C726.3 125 704.7 100 701.8 75C699 50 715 25 723 12.5L731 0L900 0L900 12.5C900 25 900 50 900 75C900 100 900 125 900 150C900 175 900 200 900 225C900 250 900 275 900 300C900 325 900 350 900 375C900 400 900 425 900 450C900 475 900 500 900 525C900 550 900 575 900 587.5L900 600Z" fill="#ffe8e1"></path><path d="M677 600L691 587.5C705 575 733 550 737 525C741 500 721 475 718.3 450C715.7 425 730.3 400 727.2 375C724 350 703 325 702.5 300C702 275 722 250 728.8 225C735.7 200 729.3 175 731.2 150C733 125 743 100 742.3 75C741.7 50 730.3 25 724.7 12.5L719 0L900 0L900 12.5C900 25 900 50 900 75C900 100 900 125 900 150C900 175 900 200 900 225C900 250 900 275 900 300C900 325 900 350 900 375C900 400 900 425 900 450C900 475 900 500 900 525C900 550 900 575 900 587.5L900 600Z" fill="#ffe4dc"></path><path d="M758 600L766 587.5C774 575 790 550 800.8 525C811.7 500 817.3 475 806 450C794.7 425 766.3 400 760.7 375C755 350 772 325 780.8 300C789.7 275 790.3 250 787.8 225C785.3 200 779.7 175 773.5 150C767.3 125 760.7 100 768.7 75C776.7 50 799.3 25 810.7 12.5L822 0L900 0L900 12.5C900 25 900 50 900 75C900 100 900 125 900 150C900 175 900 200 900 225C900 250 900 275 900 300C900 325 900 350 900 375C900 400 900 425 900 450C900 475 900 500 900 525C900 550 900 575 900 587.5L900 600Z" fill="#ffd9cd"></path><path d="M828 600L829 587.5C830 575 832 550 837.8 525C843.7 500 853.3 475 848.5 450C843.7 425 824.3 400 817.8 375C811.3 350 817.7 325 817 300C816.3 275 808.7 250 803.8 225C799 200 797 175 796.7 150C796.3 125 797.7 100 803 75C808.3 50 817.7 25 822.3 12.5L827 0L900 0L900 12.5C900 25 900 50 900 75C900 100 900 125 900 150C900 175 900 200 900 225C900 250 900 275 900 300C900 325 900 350 900 375C900 400 900 425 900 450C900 475 900 500 900 525C900 550 900 575 900 587.5L900 600Z" fill="#ffc6b2"></path></svg>