<svg id="visual" viewBox="0 0 960 300" width="960" height="300" xmlns="http://www.w3.org/2000/svg" xmlns:xlink="http://www.w3.org/1999/xlink" version="1.1"><rect x="0" y="0" width="960" height="300" fill="#ffe9e3"></rect><path d="M0 241L22.8 236.3C45.7 231.7 91.3 222.3 137 225.7C182.7 229 228.3 245 274 249.7C319.7 254.3 365.3 247.7 411.2 243.8C457 240 503 239 548.8 230.5C594.7 222 640.3 206 686 209.5C731.7 213 777.3 236 823 245C868.7 254 914.3 249 937.2 246.5L960 244L960 301L937.2 301C914.3 301 868.7 301 823 301C777.3 301 731.7 301 686 301C640.3 301 594.7 301 548.8 301C503 301 457 301 411.2 301C365.3 301 319.7 301 274 301C228.3 301 182.7 301 137 301C91.3 301 45.7 301 22.8 301L0 301Z" fill="#c4c1e0" stroke-linecap="round" stroke-linejoin="miter"></path></svg>